<svg width="4845" height="1346" xmlns="http://www.w3.org/2000/svg" xmlns:xlink="http://www.w3.org/1999/xlink" xml:space="preserve" overflow="hidden"><g transform="translate(210 -556)"><rect x="-205" y="1565" width="184" height="165" stroke="#FF0000" stroke-width="10.3125" stroke-miterlimit="8" fill="none"/><text font-family="Calibri,Calibri_MSFontService,sans-serif" font-weight="400" font-size="110" transform="matrix(1 0 0 1 -140.752 1685)">1</text><rect x="-21" y="1565" width="185" height="165" stroke="#FF0000" stroke-width="10.3125" stroke-miterlimit="8" fill="none"/><text font-family="Calibri,Calibri_MSFontService,sans-serif" font-weight="400" font-size="110" transform="matrix(1 0 0 1 44.0484 1685)">2</text><rect x="164" y="1565" width="185" height="165" stroke="#FF0000" stroke-width="10.3125" stroke-miterlimit="8" fill="none"/><rect x="403" y="1565" width="185" height="165" stroke="#FF0000" stroke-width="10.3125" stroke-miterlimit="8" fill="none"/><text font-family="Calibri,Calibri_MSFontService,sans-serif" font-weight="400" font-size="110" transform="matrix(1 0 0 1 467.602 1684)">3</text><rect x="588" y="1565" width="185" height="165" stroke="#FF0000" stroke-width="10.3125" stroke-miterlimit="8" fill="none"/><text font-family="Calibri,Calibri_MSFontService,sans-serif" font-weight="400" font-size="110" transform="matrix(1 0 0 1 652.402 1684)">4</text><rect x="773" y="1565" width="184" height="165" stroke="#FF0000" stroke-width="10.3125" stroke-miterlimit="8" fill="none"/><rect x="1011" y="1565" width="185" height="165" stroke="#FF0000" stroke-width="10.3125" stroke-miterlimit="8" fill="none"/><text font-family="Calibri,Calibri_MSFontService,sans-serif" font-weight="400" font-size="110" transform="matrix(1 0 0 1 1075.96 1685)">5</text><rect x="1196" y="1565" width="185" height="165" stroke="#FF0000" stroke-width="10.3125" stroke-miterlimit="8" fill="none"/><text font-family="Calibri,Calibri_MSFontService,sans-serif" font-weight="400" font-size="110" transform="matrix(1 0 0 1 1260.76 1685)">6</text><rect x="1381" y="1565" width="185" height="165" stroke="#FF0000" stroke-width="10.3125" stroke-miterlimit="8" fill="none"/><rect x="1622" y="1565" width="185" height="165" stroke="#FF0000" stroke-width="10.3125" stroke-miterlimit="8" fill="none"/><text font-family="Calibri,Calibri_MSFontService,sans-serif" font-weight="400" font-size="110" transform="matrix(1 0 0 1 1686.33 1684)">7</text><rect x="1807" y="1565" width="184" height="165" stroke="#FF0000" stroke-width="10.3125" stroke-miterlimit="8" fill="none"/><text font-family="Calibri,Calibri_MSFontService,sans-serif" font-weight="400" font-size="110" transform="matrix(1 0 0 1 1871.13 1684)">8</text><rect x="1991" y="1565" width="185" height="165" stroke="#FF0000" stroke-width="10.3125" stroke-miterlimit="8" fill="none"/><rect x="2229" y="1567" width="185" height="165" stroke="#FF0000" stroke-width="10.3125" stroke-miterlimit="8" fill="none"/><text font-family="Calibri,Calibri_MSFontService,sans-serif" font-weight="400" font-size="110" transform="matrix(1 0 0 1 2293.68 1687)">9</text><rect x="2414" y="1567" width="185" height="165" stroke="#FF0000" stroke-width="10.3125" stroke-miterlimit="8" fill="none"/><text font-family="Calibri,Calibri_MSFontService,sans-serif" font-weight="400" font-size="110" transform="matrix(1 0 0 1 2450.69 1687)">10</text><rect x="2599" y="1567" width="184" height="165" stroke="#FF0000" stroke-width="10.3125" stroke-miterlimit="8" fill="none"/><rect x="2836" y="1568" width="185" height="165" stroke="#FF0000" stroke-width="10.3125" stroke-miterlimit="8" fill="none"/><text font-family="Calibri,Calibri_MSFontService,sans-serif" font-weight="400" font-size="110" transform="matrix(1 0 0 1 2873.24 1688)">11</text><rect x="3021" y="1568" width="185" height="165" stroke="#FF0000" stroke-width="10.3125" stroke-miterlimit="8" fill="none"/><text font-family="Calibri,Calibri_MSFontService,sans-serif" font-weight="400" font-size="110" transform="matrix(1 0 0 1 3058.04 1688)">12</text><rect x="3206" y="1568" width="185" height="165" stroke="#FF0000" stroke-width="10.3125" stroke-miterlimit="8" fill="none"/><rect x="3444" y="1563" width="185" height="165" stroke="#FF0000" stroke-width="10.3125" stroke-miterlimit="8" fill="none"/><text font-family="Calibri,Calibri_MSFontService,sans-serif" font-weight="400" font-size="110" transform="matrix(1 0 0 1 3480.58 1683)">13</text><rect x="3629" y="1563" width="184" height="165" stroke="#FF0000" stroke-width="10.3125" stroke-miterlimit="8" fill="none"/><text font-family="Calibri,Calibri_MSFontService,sans-serif" font-weight="400" font-size="110" transform="matrix(1 0 0 1 3665.38 1683)">14</text><rect x="3813" y="1563" width="185" height="165" stroke="#FF0000" stroke-width="10.3125" stroke-miterlimit="8" fill="none"/><path d="M1.32958-4.98188 81.0397 16.2913 78.3805 26.2551-1.32958 4.98188ZM110.931 24.2688 190.641 45.542 187.982 55.5058 108.272 34.2326ZM220.532 53.5195 300.242 74.7927 297.583 84.7565 217.873 63.4832ZM330.134 82.7702 409.844 104.043 407.185 114.007 327.475 92.7339ZM439.735 112.021 519.445 133.294 516.786 143.258 437.076 121.985ZM549.336 141.272 629.047 162.545 626.387 172.509 546.677 151.235ZM658.938 170.522 738.648 191.795 735.989 201.759 656.279 180.486ZM768.539 199.773 848.249 221.046 845.59 231.01 765.88 209.737ZM878.141 229.024 957.851 250.297 955.191 260.261 875.481 238.987ZM987.742 258.274 1067.45 279.548 1064.79 289.511 985.083 268.238ZM1097.34 287.525 1177.05 308.798 1174.39 318.762 1094.68 297.489ZM1206.94 316.776 1286.65 338.049 1284 348.013 1204.29 326.739ZM1316.55 346.026 1396.26 367.3 1393.6 377.263 1313.89 355.99ZM1426.15 375.277 1505.86 396.55 1503.2 406.514 1423.49 385.241ZM1522.47 390.309 1548.37 413.232 1514.49 420.2Z" fill="#0D0D0D" transform="matrix(-1 0 0 1 2227.37 656)"/><path d="M4.03069-3.21566 55.4812 61.2754 47.4199 67.7067-4.03069 3.21566ZM74.7752 85.4595 126.226 149.951 118.164 156.382 66.7138 91.8908ZM145.52 174.135 196.97 238.626 188.909 245.057 137.458 180.566ZM216.264 262.81 267.715 327.301 259.653 333.732 208.203 269.241ZM287.009 351.485 318.1 390.456 310.038 396.887 278.947 357.916ZM322.945 379.994 330.147 413.825 298.761 399.288Z" fill="#0D0D0D" transform="matrix(-1 0 0 1 402.147 1151)"/><path d="M592.029 1149.86 610.219 1230.33 600.16 1232.61 581.971 1152.14ZM617.04 1260.51 635.229 1340.98 625.17 1343.25 606.981 1262.78ZM642.05 1371.16 660.239 1451.62 650.181 1453.9 631.991 1373.43ZM667.06 1481.8 679.752 1537.95 669.693 1540.22 657.002 1484.07ZM688.674 1530.65 680.407 1564.23 658.498 1537.47Z" fill="#0D0D0D"/><path d="M4.03563-3.20945 55.3868 61.3607 47.3156 67.7796-4.03563 3.20945ZM74.6435 85.5745 125.995 150.145 117.923 156.564 66.5723 91.9934ZM145.251 174.358 196.603 238.929 188.531 245.348 137.18 180.777ZM215.859 263.142 267.211 327.713 259.139 334.131 207.788 269.561ZM286.467 351.926 316.623 389.845 308.552 396.264 278.396 358.345ZM321.485 379.39 328.634 413.232 297.271 398.647Z" fill="#0D0D0D" transform="matrix(-1 0 0 1 2227.63 1151)"/><path d="M2417.03 1149.86 2435.2 1230.34 2425.14 1232.61 2406.97 1152.14ZM2442.01 1260.52 2460.17 1340.99 2450.12 1343.26 2431.95 1262.79ZM2466.99 1371.17 2485.15 1451.65 2475.09 1453.92 2456.93 1373.44ZM2491.97 1481.82 2505.26 1540.74 2495.21 1543.01 2481.91 1484.09ZM2514.19 1533.44 2505.91 1567.02 2484.01 1540.25Z" fill="#0D0D0D"/><path d="M2417.03 654.875 2435.03 735.387 2424.97 737.637 2406.97 657.125ZM2441.79 765.578 2459.79 846.09 2449.72 848.341 2431.72 767.829ZM2466.54 876.282 2484.54 956.794 2474.48 959.044 2456.48 878.533ZM2491.29 986.986 2503.81 1042.95 2493.74 1045.2 2481.23 989.236ZM2512.74 1035.66 2504.4 1069.23 2482.55 1042.42Z" fill="#0D0D0D"/><path d="M775.223 1146.98 839.617 1198.55 833.17 1206.6 768.777 1155.02ZM863.764 1217.89 928.158 1269.46 921.711 1277.51 857.318 1225.94ZM952.306 1288.8 1016.7 1340.37 1010.25 1348.42 945.859 1296.85ZM1040.85 1359.71 1105.24 1411.28 1098.79 1419.33 1034.4 1367.76ZM1129.39 1430.62 1193.78 1482.2 1187.33 1490.25 1122.94 1438.67ZM1217.93 1501.54 1272.06 1544.89 1265.62 1552.94 1211.48 1509.59ZM1274.49 1533.62 1288.96 1565.03 1255.15 1557.77Z" fill="#0D0D0D"/><path d="M5.03546-1.10953 22.7879 79.4579 12.7169 81.6769-5.03546 1.10953ZM29.445 109.671 47.1974 190.238 37.1265 192.457 19.3741 111.89ZM53.8546 220.451 71.607 301.018 61.5361 303.237 43.7837 222.67ZM78.2641 331.231 90.2573 385.66 80.1863 387.879 68.1932 333.45ZM99.2187 378.406 90.7695 411.947 69.006 385.063Z" fill="#0D0D0D" transform="matrix(-1 0 0 1 3811.77 1151)"/><path d="M2600.24 1146.99 2664.44 1198.79 2657.97 1206.82 2593.76 1155.01ZM2688.52 1218.22 2752.73 1270.03 2746.25 1278.05 2682.05 1226.25ZM2776.8 1289.45 2841.01 1341.26 2834.53 1349.28 2770.33 1297.48ZM2865.09 1360.69 2929.29 1412.49 2922.82 1420.52 2858.61 1368.71ZM2953.37 1431.92 3017.58 1483.72 3011.1 1491.75 2946.9 1439.94ZM3041.65 1503.15 3096.63 1547.51 3090.16 1555.54 3035.18 1511.18ZM3099.09 1536.25 3113.46 1567.71 3079.67 1560.33Z" fill="#0D0D0D"/><path d="M0.0566632-5.15594 28.2307-4.84631 28.1174 5.46557-0.0566632 5.15594ZM23.1881-15.2148 53.9538 0.592946 22.8482 15.7208Z" fill="#0D0D0D" transform="matrix(1 0 0 -1 349 1647.59)"/><path d="M957.077 1641.84 985.254 1642.26 985.101 1652.57 956.923 1652.16ZM980.252 1631.87 1010.96 1647.8 979.793 1662.81Z" fill="#0D0D0D"/><path d="M0.0737672-5.15572 30.266-4.72374 30.1184 5.58771-0.0737672 5.15572ZM25.2578-15.1089 55.9708 0.80082 24.8152 15.8254Z" fill="#0D0D0D" transform="matrix(1 0 0 -1 1566 1647.8)"/><path d="M2176.27 1641.85 2203.47 1643.28 2202.93 1653.58 2175.73 1652.15ZM2198.87 1632.71 2228.95 1649.79 2197.24 1663.61Z" fill="#0D0D0D"/><path d="M2783.07 1644.84 2810.24 1645.2 2810.1 1655.51 2782.93 1655.16ZM2805.21 1634.82 2835.95 1650.69 2804.81 1665.76Z" fill="#0D0D0D"/><path d="M0.462371-5.13548 27.7315-2.68031 26.8068 7.59065-0.462371 5.13548ZM23.5208-13.4136 52.9465 4.76703 20.7465 17.3992Z" fill="#0D0D0D" transform="matrix(1 0 0 -1 3391 1650.77)"/><rect x="4051" y="1566" width="185" height="165" stroke="#FF0000" stroke-width="10.3125" stroke-miterlimit="8" fill="none"/><text font-family="Calibri,Calibri_MSFontService,sans-serif" font-weight="400" font-size="110" transform="matrix(1 0 0 1 4087.79 1685)">15</text><rect x="4236" y="1566" width="185" height="165" stroke="#FF0000" stroke-width="10.3125" stroke-miterlimit="8" fill="none"/><text font-family="Calibri,Calibri_MSFontService,sans-serif" font-weight="400" font-size="110" transform="matrix(1 0 0 1 4272.59 1685)">16</text><rect x="4421" y="1566" width="184" height="165" stroke="#FF0000" stroke-width="10.3125" stroke-miterlimit="8" fill="none"/><text font-family="Calibri,Calibri_MSFontService,sans-serif" font-weight="400" font-size="110" transform="matrix(1 0 0 1 4457.39 1685)">17</text><path d="M3998.23 1640.85 4025.29 1642.07 4024.82 1652.37 3997.77 1651.15ZM4020.6 1631.54 4050.81 1648.38 4019.21 1662.44Z" fill="#0D0D0D"/><path d="M4001.03 1147.78 4052.58 1212.19 4044.53 1218.63 3992.97 1154.22ZM4071.91 1236.34 4123.47 1300.75 4115.42 1307.19 4063.86 1242.78ZM4142.8 1324.9 4194.35 1389.31 4186.3 1395.75 4134.75 1331.34ZM4213.69 1413.46 4265.24 1477.87 4257.19 1484.31 4205.64 1419.91ZM4284.57 1502.02 4316.56 1541.98 4308.5 1548.43 4276.52 1508.47ZM4321.38 1531.51 4328.64 1565.33 4297.23 1550.84Z" fill="#0D0D0D"/><path d="M2598.38 651.031 2677.88 673.055 2675.13 682.993 2595.62 660.969ZM2707.7 681.313 2787.2 703.337 2784.45 713.275 2704.94 691.252ZM2817.02 711.596 2896.52 733.62 2893.77 743.558 2814.27 721.534ZM2926.34 741.879 3005.84 763.902 3003.09 773.841 2923.59 751.817ZM3035.66 772.161 3115.17 794.185 3112.41 804.123 3032.91 782.1ZM3144.98 802.444 3224.49 824.468 3221.73 834.406 3142.23 812.382ZM3254.3 832.727 3333.81 854.75 3331.05 864.689 3251.55 842.665ZM3363.62 863.009 3443.13 885.033 3440.37 894.971 3360.87 872.947ZM3472.94 893.292 3552.45 915.316 3549.7 925.254 3470.19 903.23ZM3582.26 923.574 3661.77 945.598 3659.02 955.536 3579.51 933.513ZM3691.58 953.857 3771.09 975.881 3768.34 985.819 3688.83 963.795ZM3800.9 984.14 3880.41 1006.16 3877.66 1016.1 3798.15 994.078ZM3910.23 1014.42 3989.73 1036.45 3986.98 1046.38 3907.47 1024.36ZM4019.55 1044.7 4065.31 1057.38 4062.56 1067.32 4016.79 1054.64ZM4063.09 1046.07 4088.77 1069.23 4054.83 1075.88Z" fill="#0D0D0D"/><path d="M9.16427 1816.94C11.4201 1816.94 13.2015 1817.68 14.5085 1819.17 15.8155 1820.66 16.469 1822.6 16.469 1825 16.469 1826.9 16.0393 1829.01 15.1799 1831.34L15.8244 1831.55C19.3335 1826.61 22.6726 1822.95 25.8415 1820.57 29.0105 1818.19 32.2779 1816.99 35.6438 1816.99 38.9738 1816.99 41.5341 1817.95 43.3244 1819.87 45.1148 1821.78 46.01 1824.44 46.01 1827.84 46.01 1830.1 45.4908 1833.3 44.4524 1837.46L40.9611 1851.53C39.9943 1855.43 39.5109 1858.19 39.5109 1859.8 39.5109 1861.23 39.7437 1862.27 40.2092 1862.92 40.6747 1863.56 41.4087 1863.88 42.4113 1863.88 43.4856 1863.88 44.6314 1863.45 45.8488 1862.57 47.0663 1861.69 48.785 1860.02 51.0051 1857.55L54.0666 1860.55C50.9872 1863.85 48.3016 1866.26 46.01 1867.78 43.7183 1869.3 41.1044 1870.06 38.1682 1870.06 35.8407 1870.06 33.9787 1869.23 32.5822 1867.56 31.1858 1865.9 30.4875 1863.78 30.4875 1861.2 30.4875 1858.87 31.0783 1855.45 32.26 1850.94L34.6233 1841.65C35.4826 1838.28 36.0466 1835.79 36.3151 1834.18 36.5837 1832.57 36.718 1831.26 36.718 1830.26 36.718 1827.79 36.3062 1826.01 35.4826 1824.92 34.6591 1823.82 33.3163 1823.28 31.4543 1823.28 29.9504 1823.28 28.3301 1823.88 26.5935 1825.08 24.8568 1826.28 23.0127 1828.09 21.0612 1830.5 19.1097 1832.92 17.5432 1835.27 16.3615 1837.54 15.1799 1839.81 14.2131 1842.61 13.4611 1845.94L8.3586 1869.2-0.933385 1869.2 6.90841 1835.15C7.69617 1831.71 8.09005 1829.06 8.09005 1827.2 8.09005 1825.77 7.8573 1824.73 7.39181 1824.08 6.92632 1823.44 6.19227 1823.12 5.18966 1823.12 4.07964 1823.12 2.90695 1823.57 1.6716 1824.49 0.436244 1825.4-1.25565 1827.06-3.40409 1829.46L-6.46561 1826.45C-3.17134 1823.01-0.432084 1820.57 1.75216 1819.12 3.93641 1817.67 6.40711 1816.94 9.16427 1816.94Z" fill-rule="evenodd"/><text fill="#000000" fill-opacity="0" font-family="Arial,Arial_MSFontService,sans-serif" font-size="53.1201" x="-6.46561" y="1863.42">𝑛</text><path d="M79.0896 1843.71 81.4724 1843.71C81.4203 1845.14 81.3813 1846.42 81.3552 1847.56 81.3292 1848.69 81.3096 1849.79 81.2966 1850.86 81.2836 1851.92 81.2771 1852.98 81.2771 1854.02L81.2771 1883.71C81.2771 1884.52 81.3031 1885.21 81.3552 1885.8 81.4073 1886.38 81.4919 1886.88 81.6091 1887.28 81.7263 1887.69 81.8826 1888.03 82.0779 1888.32 82.2732 1888.6 82.5011 1888.85 82.7615 1889.06 83.074 1889.37 83.4906 1889.61 84.0115 1889.78 84.5323 1889.95 85.1964 1890.09 86.0037 1890.21 86.8109 1890.33 87.781 1890.42 88.9138 1890.49 90.0466 1890.55 91.4073 1890.6 92.9958 1890.62L92.9958 1894.02 62.0193 1894.02 62.0193 1890.62C63.5557 1890.57 64.8578 1890.51 65.9255 1890.45 66.9932 1890.38 67.9047 1890.29 68.6599 1890.17 69.4151 1890.06 70.0206 1889.93 70.4763 1889.78 70.932 1889.64 71.3292 1889.46 71.6677 1889.25 72.0323 1889.02 72.3448 1888.77 72.6052 1888.49 72.8656 1888.22 73.074 1887.87 73.2302 1887.46 73.3865 1887.04 73.5102 1886.53 73.6013 1885.93 73.6925 1885.34 73.738 1884.59 73.738 1883.71L73.738 1855.7C73.738 1854.68 73.5427 1853.97 73.1521 1853.55 72.7615 1853.14 72.2016 1852.93 71.4724 1852.93 70.6651 1852.93 69.4672 1853.34 67.8787 1854.18 66.2901 1855.01 64.2328 1856.25 61.7068 1857.89 61.3682 1857.29 61.0557 1856.69 60.7693 1856.09 60.4828 1855.49 60.1833 1854.88 59.8708 1854.25 63.1 1852.48 66.2966 1850.72 69.4607 1848.96 72.6247 1847.2 75.8344 1845.45 79.0896 1843.71Z" fill-rule="evenodd"/><text fill="#000000" fill-opacity="0" font-family="Arial,Arial_MSFontService,sans-serif" font-size="50.3125" x="59.8708" y="1887.73">1</text><path d="M80.3094 1779.78C78.4865 1779.78 76.963 1780.26 75.7391 1781.21 74.5151 1782.16 73.5451 1783.55 72.8289 1785.39 72.1128 1787.22 71.605 1789.46 71.3055 1792.1 71.006 1794.75 70.8563 1797.75 70.8563 1801.11 70.8563 1804.99 71.0451 1808.34 71.4227 1811.17 71.8003 1813.99 72.3862 1816.32 73.1805 1818.14 73.9747 1819.96 74.9708 1821.3 76.1688 1822.16 77.3667 1823.02 78.799 1823.45 80.4656 1823.45 82.0281 1823.45 83.3953 1823.05 84.5672 1822.24 85.7391 1821.43 86.7091 1820.18 87.4774 1818.47 88.2456 1816.77 88.825 1814.6 89.2156 1811.99 89.6063 1809.37 89.8016 1806.28 89.8016 1802.71 89.8016 1798.7 89.5867 1795.25 89.157 1792.36 88.7274 1789.47 88.1219 1787.09 87.3406 1785.23 86.5594 1783.37 85.5763 1781.99 84.3914 1781.11 83.2065 1780.22 81.8458 1779.78 80.3094 1779.78ZM80.4656 1775.99C83.5646 1775.99 86.2143 1776.57 88.4149 1777.73 90.6154 1778.89 92.4122 1780.54 93.8055 1782.69 95.1987 1784.84 96.2208 1787.46 96.8719 1790.56 97.5229 1793.66 97.8484 1797.16 97.8484 1801.07 97.8484 1809.74 96.312 1816.3 93.2391 1820.74 90.1662 1825.18 85.713 1827.4 79.8797 1827.4 74.0984 1827.4 69.8016 1825.3 66.9891 1821.11 64.1766 1816.92 62.7703 1810.56 62.7703 1802.05 62.7703 1797.59 63.2065 1793.74 64.0789 1790.48 64.9513 1787.23 66.1753 1784.53 67.7508 1782.38 69.3263 1780.23 71.1948 1778.63 73.3563 1777.57 75.5177 1776.52 77.8875 1775.99 80.4656 1775.99Z" fill-rule="evenodd"/><text fill="#000000" fill-opacity="0" font-family="Arial,Arial_MSFontService,sans-serif" font-size="51.4062" x="62.7703" y="1820.97">0</text><path d="M616.511 1816.94C618.767 1816.94 620.549 1817.68 621.856 1819.17 623.163 1820.66 623.816 1822.6 623.816 1825 623.816 1826.9 623.386 1829.01 622.527 1831.34L623.172 1831.55C626.681 1826.61 630.02 1822.95 633.189 1820.57 636.358 1818.19 639.625 1816.99 642.991 1816.99 646.321 1816.99 648.881 1817.95 650.672 1819.87 652.462 1821.78 653.357 1824.44 653.357 1827.84 653.357 1830.1 652.838 1833.3 651.8 1837.46L648.308 1851.53C647.342 1855.43 646.858 1858.19 646.858 1859.8 646.858 1861.23 647.091 1862.27 647.556 1862.92 648.022 1863.56 648.756 1863.88 649.759 1863.88 650.833 1863.88 651.979 1863.45 653.196 1862.57 654.414 1861.69 656.132 1860.02 658.352 1857.55L661.414 1860.55C658.334 1863.85 655.649 1866.26 653.357 1867.78 651.065 1869.3 648.452 1870.06 645.515 1870.06 643.188 1870.06 641.326 1869.23 639.929 1867.56 638.533 1865.9 637.835 1863.78 637.835 1861.2 637.835 1858.87 638.426 1855.45 639.607 1850.94L641.97 1841.65C642.83 1838.28 643.394 1835.79 643.662 1834.18 643.931 1832.57 644.065 1831.26 644.065 1830.26 644.065 1827.79 643.653 1826.01 642.83 1824.92 642.006 1823.82 640.664 1823.28 638.802 1823.28 637.298 1823.28 635.677 1823.88 633.941 1825.08 632.204 1826.28 630.36 1828.09 628.408 1830.5 626.457 1832.92 624.89 1835.27 623.709 1837.54 622.527 1839.81 621.56 1842.61 620.808 1845.94L615.706 1869.2 606.414 1869.2 614.256 1835.15C615.043 1831.71 615.437 1829.06 615.437 1827.2 615.437 1825.77 615.205 1824.73 614.739 1824.08 614.273 1823.44 613.539 1823.12 612.537 1823.12 611.427 1823.12 610.254 1823.57 609.019 1824.49 607.783 1825.4 606.092 1827.06 603.943 1829.46L600.882 1826.45C604.176 1823.01 606.915 1820.57 609.099 1819.12 611.284 1817.67 613.754 1816.94 616.511 1816.94Z" fill-rule="evenodd"/><text fill="#000000" fill-opacity="0" font-family="Arial,Arial_MSFontService,sans-serif" font-size="53.1201" x="600.882" y="1863.42">𝑛</text><path d="M685.934 1843.57C688.642 1843.57 690.953 1843.88 692.867 1844.49 694.781 1845.1 696.337 1845.93 697.535 1846.97 698.733 1848.01 699.599 1849.26 700.133 1850.72 700.667 1852.18 700.934 1853.75 700.934 1855.45 700.934 1856.46 700.862 1857.41 700.719 1858.28 700.576 1859.15 700.328 1860.01 699.977 1860.86 699.625 1861.7 699.163 1862.56 698.59 1863.42 698.017 1864.28 697.301 1865.19 696.441 1866.15 695.79 1866.98 694.944 1867.95 693.902 1869.04 692.861 1870.13 691.721 1871.31 690.484 1872.56 689.247 1873.81 687.952 1875.11 686.598 1876.46 685.244 1877.82 683.928 1879.16 682.652 1880.49 681.376 1881.81 680.204 1883.1 679.137 1884.35 678.069 1885.6 677.197 1886.75 676.52 1887.79L690.973 1887.79C692.197 1887.79 693.173 1887.75 693.902 1887.65 694.632 1887.56 695.237 1887.36 695.719 1887.05 696.201 1886.74 696.611 1886.26 696.949 1885.62 697.288 1884.98 697.678 1884.11 698.121 1882.99L701.754 1882.99C701.624 1884.84 701.5 1886.7 701.383 1888.57 701.266 1890.45 701.142 1892.31 701.012 1894.16L667.926 1894.16 667.926 1892.13C668.551 1890.72 669.28 1889.33 670.113 1887.97 670.947 1886.6 671.884 1885.21 672.926 1883.81 673.968 1882.4 675.152 1880.95 676.481 1879.45 677.809 1877.95 679.28 1876.4 680.895 1874.78 683.343 1872.34 685.335 1870.25 686.871 1868.51 688.408 1866.78 689.619 1865.24 690.504 1863.88 691.389 1862.53 691.995 1861.28 692.32 1860.13 692.646 1858.99 692.809 1857.76 692.809 1856.46 692.809 1855.13 692.62 1853.91 692.242 1852.79 691.865 1851.67 691.324 1850.72 690.621 1849.94 689.918 1849.16 689.026 1848.55 687.945 1848.1 686.865 1847.66 685.621 1847.44 684.215 1847.44 681.793 1847.44 679.762 1848.1 678.121 1849.41 676.481 1850.73 675.204 1852.63 674.293 1855.13L669.176 1855.13 669.176 1847.52C672.509 1846.14 675.576 1845.13 678.375 1844.51 681.175 1843.88 683.694 1843.57 685.934 1843.57Z" fill-rule="evenodd"/><text fill="#000000" fill-opacity="0" font-family="Arial,Arial_MSFontService,sans-serif" font-size="50.5859" x="667.926" y="1887.83">2</text><path d="M687.657 1779.64C685.834 1779.64 684.31 1780.12 683.086 1781.07 681.862 1782.02 680.892 1783.41 680.176 1785.25 679.46 1787.08 678.952 1789.32 678.653 1791.97 678.353 1794.61 678.203 1797.61 678.203 1800.97 678.203 1804.85 678.392 1808.2 678.77 1811.03 679.148 1813.85 679.733 1816.18 680.528 1818 681.322 1819.82 682.318 1821.17 683.516 1822.03 684.714 1822.88 686.146 1823.31 687.813 1823.31 689.375 1823.31 690.743 1822.91 691.914 1822.1 693.086 1821.3 694.056 1820.04 694.825 1818.33 695.593 1816.63 696.172 1814.47 696.563 1811.85 696.953 1809.23 697.149 1806.14 697.149 1802.57 697.149 1798.56 696.934 1795.11 696.504 1792.22 696.075 1789.33 695.469 1786.95 694.688 1785.09 693.907 1783.23 692.924 1781.86 691.739 1780.97 690.554 1780.09 689.193 1779.64 687.657 1779.64ZM687.813 1775.85C690.912 1775.85 693.562 1776.43 695.762 1777.59 697.963 1778.75 699.759 1780.4 701.153 1782.55 702.546 1784.7 703.568 1787.32 704.219 1790.42 704.87 1793.52 705.196 1797.03 705.196 1800.93 705.196 1809.6 703.659 1816.16 700.586 1820.6 697.513 1825.04 693.06 1827.26 687.227 1827.26 681.446 1827.26 677.149 1825.16 674.336 1820.97 671.524 1816.78 670.118 1810.42 670.118 1801.91 670.118 1797.45 670.554 1793.6 671.426 1790.35 672.299 1787.09 673.523 1784.39 675.098 1782.24 676.674 1780.09 678.542 1778.49 680.703 1777.44 682.865 1776.38 685.235 1775.85 687.813 1775.85Z" fill-rule="evenodd"/><text fill="#000000" fill-opacity="0" font-family="Arial,Arial_MSFontService,sans-serif" font-size="51.4062" x="670.118" y="1820.83">0</text><path d="M1225.87 1817.95C1228.13 1817.95 1229.91 1818.69 1231.22 1820.18 1232.53 1821.66 1233.18 1823.61 1233.18 1826.01 1233.18 1827.9 1232.75 1830.02 1231.89 1832.34L1232.53 1832.56C1236.04 1827.62 1239.38 1823.96 1242.55 1821.57 1245.72 1819.19 1248.99 1818 1252.35 1818 1255.68 1818 1258.24 1818.96 1260.03 1820.88 1261.82 1822.79 1262.72 1825.45 1262.72 1828.85 1262.72 1831.11 1262.2 1834.31 1261.16 1838.47L1257.67 1852.54C1256.7 1856.44 1256.22 1859.2 1256.22 1860.81 1256.22 1862.24 1256.45 1863.28 1256.92 1863.93 1257.38 1864.57 1258.12 1864.89 1259.12 1864.89 1260.2 1864.89 1261.34 1864.45 1262.56 1863.58 1263.78 1862.7 1265.49 1861.03 1267.72 1858.55L1270.78 1861.56C1267.7 1864.86 1265.01 1867.26 1262.72 1868.79 1260.43 1870.31 1257.81 1871.07 1254.88 1871.07 1252.55 1871.07 1250.69 1870.24 1249.29 1868.57 1247.9 1866.91 1247.2 1864.79 1247.2 1862.21 1247.2 1859.88 1247.79 1856.46 1248.97 1851.95L1251.33 1842.66C1252.19 1839.29 1252.76 1836.8 1253.03 1835.19 1253.29 1833.58 1253.43 1832.27 1253.43 1831.27 1253.43 1828.8 1253.02 1827.02 1252.19 1825.93 1251.37 1824.83 1250.03 1824.29 1248.16 1824.29 1246.66 1824.29 1245.04 1824.89 1243.3 1826.09 1241.57 1827.29 1239.72 1829.09 1237.77 1831.51 1235.82 1833.93 1234.25 1836.27 1233.07 1838.55 1231.89 1840.82 1230.92 1843.62 1230.17 1846.95L1225.07 1870.21 1215.78 1870.21 1223.62 1836.16C1224.41 1832.72 1224.8 1830.07 1224.8 1828.21 1224.8 1826.78 1224.57 1825.74 1224.1 1825.09 1223.64 1824.45 1222.9 1824.13 1221.9 1824.13 1220.79 1824.13 1219.62 1824.58 1218.38 1825.5 1217.15 1826.41 1215.45 1828.06 1213.31 1830.46L1210.24 1827.46C1213.54 1824.02 1216.28 1821.57 1218.46 1820.12 1220.65 1818.67 1223.12 1817.95 1225.87 1817.95Z" fill-rule="evenodd"/><text fill="#000000" fill-opacity="0" font-family="Arial,Arial_MSFontService,sans-serif" font-size="53.1201" x="1210.24" y="1864.43">𝑛</text><path d="M1295.22 1844.58C1297.3 1844.58 1299.25 1844.8 1301.06 1845.24 1302.87 1845.69 1304.44 1846.36 1305.77 1847.26 1307.09 1848.15 1308.13 1849.27 1308.87 1850.62 1309.61 1851.96 1309.98 1853.51 1309.98 1855.28 1309.98 1856.95 1309.75 1858.42 1309.28 1859.7 1308.81 1860.97 1308.09 1862.13 1307.11 1863.17 1306.14 1864.22 1304.94 1865.16 1303.52 1866.01 1302.1 1866.85 1300.47 1867.67 1298.62 1868.45L1298.62 1868.92C1300.36 1869.23 1301.99 1869.73 1303.5 1870.42 1305.01 1871.11 1306.33 1871.98 1307.46 1873.04 1308.6 1874.09 1309.49 1875.31 1310.14 1876.69 1310.79 1878.07 1311.12 1879.59 1311.12 1881.26 1311.12 1883.34 1310.73 1885.28 1309.94 1887.06 1309.16 1888.84 1307.99 1890.39 1306.43 1891.69 1304.87 1892.99 1302.94 1894.01 1300.65 1894.74 1298.36 1895.47 1295.67 1895.83 1292.6 1895.83 1290.18 1895.83 1287.72 1895.59 1285.22 1895.11 1282.72 1894.63 1280.35 1893.99 1278.11 1893.21L1278.11 1884.78 1283.15 1884.78C1283.56 1886.08 1284.06 1887.19 1284.63 1888.12 1285.21 1889.04 1285.88 1889.8 1286.64 1890.38 1287.41 1890.97 1288.3 1891.39 1289.3 1891.65 1290.3 1891.91 1291.44 1892.04 1292.72 1892.04 1296.08 1892.04 1298.62 1891.24 1300.36 1889.64 1302.09 1888.04 1302.95 1885.61 1302.95 1882.35 1302.95 1878.89 1301.81 1876.27 1299.53 1874.48 1297.26 1872.7 1293.88 1871.81 1289.4 1871.81L1285.96 1871.81 1285.96 1868.06C1288.69 1867.93 1291.06 1867.54 1293.05 1866.9 1295.04 1866.27 1296.7 1865.44 1298.03 1864.42 1299.36 1863.41 1300.35 1862.22 1301 1860.87 1301.65 1859.52 1301.98 1858.07 1301.98 1856.53 1301.98 1854.03 1301.23 1852.06 1299.75 1850.62 1298.27 1849.17 1296.12 1848.45 1293.3 1848.45 1290.93 1848.45 1288.95 1849.1 1287.35 1850.4 1285.75 1851.7 1284.52 1853.64 1283.66 1856.22L1278.69 1856.22 1278.69 1848.53C1281.77 1847.22 1284.67 1846.24 1287.39 1845.58 1290.11 1844.91 1292.72 1844.58 1295.22 1844.58Z" fill-rule="evenodd"/><text fill="#000000" fill-opacity="0" font-family="Arial,Arial_MSFontService,sans-serif" font-size="51.25" x="1278.11" y="1889.42">3</text><path d="M1297.02 1780.65C1295.2 1780.65 1293.67 1781.13 1292.45 1782.08 1291.23 1783.03 1290.26 1784.42 1289.54 1786.26 1288.82 1788.09 1288.31 1790.33 1288.02 1792.97 1287.72 1795.62 1287.57 1798.62 1287.57 1801.98 1287.57 1805.86 1287.76 1809.21 1288.13 1812.04 1288.51 1814.86 1289.1 1817.19 1289.89 1819.01 1290.68 1820.83 1291.68 1822.17 1292.88 1823.03 1294.08 1823.89 1295.51 1824.32 1297.18 1824.32 1298.74 1824.32 1300.11 1823.92 1301.28 1823.11 1302.45 1822.3 1303.42 1821.05 1304.19 1819.34 1304.96 1817.64 1305.54 1815.47 1305.93 1812.86 1306.32 1810.24 1306.51 1807.15 1306.51 1803.58 1306.51 1799.57 1306.3 1796.12 1305.87 1793.23 1305.44 1790.34 1304.83 1787.96 1304.05 1786.1 1303.27 1784.24 1302.29 1782.86 1301.1 1781.98 1299.92 1781.09 1298.56 1780.65 1297.02 1780.65ZM1297.18 1776.86C1300.27 1776.86 1302.92 1777.44 1305.12 1778.6 1307.33 1779.76 1309.12 1781.41 1310.52 1783.56 1311.91 1785.71 1312.93 1788.33 1313.58 1791.43 1314.23 1794.53 1314.56 1798.03 1314.56 1801.94 1314.56 1810.61 1313.02 1817.17 1309.95 1821.61 1306.88 1826.05 1302.42 1828.27 1296.59 1828.27 1290.81 1828.27 1286.51 1826.17 1283.7 1821.98 1280.89 1817.79 1279.48 1811.43 1279.48 1802.92 1279.48 1798.46 1279.92 1794.61 1280.79 1791.35 1281.66 1788.1 1282.89 1785.4 1284.46 1783.25 1286.04 1781.1 1287.9 1779.5 1290.07 1778.44 1292.23 1777.39 1294.6 1776.86 1297.18 1776.86Z" fill-rule="evenodd"/><text fill="#000000" fill-opacity="0" font-family="Arial,Arial_MSFontService,sans-serif" font-size="51.4062" x="1279.48" y="1821.84">0</text><path d="M1836.24 1816.94C1838.5 1816.94 1840.28 1817.68 1841.59 1819.17 1842.9 1820.66 1843.55 1822.6 1843.55 1825 1843.55 1826.9 1843.12 1829.01 1842.26 1831.34L1842.91 1831.55C1846.41 1826.61 1849.75 1822.95 1852.92 1820.57 1856.09 1818.19 1859.36 1816.99 1862.72 1816.99 1866.05 1816.99 1868.61 1817.95 1870.41 1819.87 1872.2 1821.78 1873.09 1824.44 1873.09 1827.84 1873.09 1830.1 1872.57 1833.3 1871.53 1837.46L1868.04 1851.53C1867.08 1855.43 1866.59 1858.19 1866.59 1859.8 1866.59 1861.23 1866.82 1862.27 1867.29 1862.92 1867.76 1863.56 1868.49 1863.88 1869.49 1863.88 1870.57 1863.88 1871.71 1863.45 1872.93 1862.57 1874.15 1861.69 1875.87 1860.02 1878.09 1857.55L1881.15 1860.55C1878.07 1863.85 1875.38 1866.26 1873.09 1867.78 1870.8 1869.3 1868.19 1870.06 1865.25 1870.06 1862.92 1870.06 1861.06 1869.23 1859.66 1867.56 1858.27 1865.9 1857.57 1863.78 1857.57 1861.2 1857.57 1858.87 1858.16 1855.45 1859.34 1850.94L1861.7 1841.65C1862.56 1838.28 1863.13 1835.79 1863.4 1834.18 1863.66 1832.57 1863.8 1831.26 1863.8 1830.26 1863.8 1827.79 1863.39 1826.01 1862.56 1824.92 1861.74 1823.82 1860.4 1823.28 1858.54 1823.28 1857.03 1823.28 1855.41 1823.88 1853.67 1825.08 1851.94 1826.28 1850.09 1828.09 1848.14 1830.5 1846.19 1832.92 1844.62 1835.27 1843.44 1837.54 1842.26 1839.81 1841.29 1842.61 1840.54 1845.94L1835.44 1869.2 1826.15 1869.2 1833.99 1835.15C1834.78 1831.71 1835.17 1829.06 1835.17 1827.2 1835.17 1825.77 1834.94 1824.73 1834.47 1824.08 1834.01 1823.44 1833.27 1823.12 1832.27 1823.12 1831.16 1823.12 1829.99 1823.57 1828.75 1824.49 1827.52 1825.4 1825.83 1827.06 1823.68 1829.46L1820.62 1826.45C1823.91 1823.01 1826.65 1820.57 1828.83 1819.12 1831.02 1817.67 1833.49 1816.94 1836.24 1816.94Z" fill-rule="evenodd"/><text fill="#000000" fill-opacity="0" font-family="Arial,Arial_MSFontService,sans-serif" font-size="53.1201" x="1820.62" y="1863.42">𝑛</text><path d="M1907.5 1852.98C1905 1856.6 1902.51 1860.2 1900.02 1863.77 1897.54 1867.33 1895.03 1870.91 1892.5 1874.51L1892.5 1874.98 1907.5 1874.98 1907.5 1867.13C1907.5 1866.24 1907.52 1865.15 1907.54 1863.84 1907.57 1862.54 1907.6 1861.22 1907.64 1859.88 1907.68 1858.54 1907.72 1857.26 1907.78 1856.05 1907.83 1854.84 1907.88 1853.82 1907.93 1852.98ZM1908.64 1843.84 1914.85 1843.84 1914.85 1874.98 1915.55 1874.98C1916.62 1874.98 1917.48 1874.92 1918.15 1874.82 1918.81 1874.72 1919.35 1874.5 1919.75 1874.18 1920.15 1873.85 1920.49 1873.39 1920.76 1872.81 1921.04 1872.22 1921.33 1871.46 1921.64 1870.52L1924.96 1870.52C1924.89 1871.96 1924.8 1873.38 1924.71 1874.78 1924.62 1876.19 1924.53 1877.62 1924.46 1879.08L1914.85 1879.08 1914.85 1884.2C1914.85 1885.71 1914.88 1886.88 1914.94 1887.71 1915.01 1888.54 1915.2 1889.2 1915.53 1889.66 1915.86 1890.13 1916.34 1890.48 1916.98 1890.72 1917.61 1890.95 1918.51 1891.23 1919.65 1891.54L1919.65 1893.88 1902.78 1893.88 1902.78 1891.54C1903.56 1891.33 1904.22 1891.14 1904.77 1890.97 1905.32 1890.8 1905.77 1890.61 1906.14 1890.39 1906.5 1890.17 1906.77 1889.91 1906.94 1889.61 1907.11 1889.31 1907.24 1888.93 1907.33 1888.47 1907.42 1888.02 1907.47 1887.44 1907.48 1886.75 1907.5 1886.06 1907.5 1885.21 1907.5 1884.2L1907.5 1879.08 1885.51 1879.08 1885.51 1875.99C1889.39 1870.6 1893.25 1865.24 1897.07 1859.92 1900.9 1854.59 1904.76 1849.23 1908.64 1843.84Z" fill-rule="evenodd"/><text fill="#000000" fill-opacity="0" font-family="Arial,Arial_MSFontService,sans-serif" font-size="50.0391" x="1885.51" y="1887.63">4</text><path d="M1907.39 1779.92C1905.57 1779.92 1904.04 1780.39 1902.82 1781.34 1901.6 1782.29 1900.63 1783.69 1899.91 1785.52 1899.19 1787.36 1898.69 1789.6 1898.39 1792.24 1898.09 1794.88 1897.94 1797.89 1897.94 1801.25 1897.94 1805.13 1898.13 1808.48 1898.5 1811.3 1898.88 1814.13 1899.47 1816.45 1900.26 1818.28 1901.06 1820.1 1902.05 1821.44 1903.25 1822.3 1904.45 1823.16 1905.88 1823.59 1907.55 1823.59 1909.11 1823.59 1910.48 1823.19 1911.65 1822.38 1912.82 1821.57 1913.79 1820.31 1914.56 1818.61 1915.33 1816.9 1915.91 1814.74 1916.3 1812.12 1916.69 1809.51 1916.88 1806.41 1916.88 1802.85 1916.88 1798.84 1916.67 1795.39 1916.24 1792.5 1915.81 1789.6 1915.2 1787.23 1914.42 1785.37 1913.64 1783.5 1912.66 1782.13 1911.47 1781.25 1910.29 1780.36 1908.93 1779.92 1907.39 1779.92ZM1907.55 1776.13C1910.65 1776.13 1913.3 1776.71 1915.5 1777.87 1917.7 1779.03 1919.49 1780.68 1920.89 1782.83 1922.28 1784.98 1923.3 1787.6 1923.95 1790.7 1924.6 1793.8 1924.93 1797.3 1924.93 1801.21 1924.93 1809.88 1923.39 1816.43 1920.32 1820.87 1917.25 1825.31 1912.79 1827.53 1906.96 1827.53 1901.18 1827.53 1896.88 1825.44 1894.07 1821.25 1891.26 1817.05 1889.85 1810.7 1889.85 1802.18 1889.85 1797.73 1890.29 1793.88 1891.16 1790.62 1892.03 1787.37 1893.26 1784.66 1894.83 1782.52 1896.41 1780.37 1898.28 1778.77 1900.44 1777.71 1902.6 1776.66 1904.97 1776.13 1907.55 1776.13Z" fill-rule="evenodd"/><text fill="#000000" fill-opacity="0" font-family="Arial,Arial_MSFontService,sans-serif" font-size="51.4062" x="1889.85" y="1821.11">0</text><path d="M2445.43 1819.94C2447.69 1819.94 2449.47 1820.69 2450.78 1822.17 2452.08 1823.66 2452.74 1825.6 2452.74 1828 2452.74 1829.9 2452.31 1832.01 2451.45 1834.34L2452.09 1834.55C2455.6 1829.61 2458.94 1825.95 2462.11 1823.57 2465.28 1821.19 2468.55 1820 2471.91 1820 2475.24 1820 2477.8 1820.95 2479.59 1822.87 2481.38 1824.79 2482.28 1827.44 2482.28 1830.85 2482.28 1833.1 2481.76 1836.31 2480.72 1840.46L2477.23 1854.53C2476.26 1858.44 2475.78 1861.19 2475.78 1862.8 2475.78 1864.24 2476.01 1865.28 2476.48 1865.92 2476.94 1866.56 2477.68 1866.89 2478.68 1866.89 2479.75 1866.89 2480.9 1866.45 2482.12 1865.57 2483.33 1864.69 2485.05 1863.02 2487.27 1860.55L2490.34 1863.56C2487.26 1866.85 2484.57 1869.26 2482.28 1870.78 2479.99 1872.3 2477.37 1873.06 2474.44 1873.06 2472.11 1873.06 2470.25 1872.23 2468.85 1870.57 2467.45 1868.9 2466.76 1866.78 2466.76 1864.2 2466.76 1861.87 2467.35 1858.45 2468.53 1853.94L2470.89 1844.65C2471.75 1841.28 2472.32 1838.8 2472.58 1837.18 2472.85 1835.57 2472.99 1834.27 2472.99 1833.26 2472.99 1830.79 2472.57 1829.01 2471.75 1827.92 2470.93 1826.83 2469.58 1826.28 2467.72 1826.28 2466.22 1826.28 2464.6 1826.88 2462.86 1828.08 2461.13 1829.28 2459.28 1831.09 2457.33 1833.51 2455.38 1835.92 2453.81 1838.27 2452.63 1840.54 2451.45 1842.82 2450.48 1845.62 2449.73 1848.95L2444.63 1872.2 2435.34 1872.2 2443.18 1838.15C2443.96 1834.71 2444.36 1832.06 2444.36 1830.2 2444.36 1828.77 2444.13 1827.73 2443.66 1827.09 2443.19 1826.44 2442.46 1826.12 2441.46 1826.12 2440.35 1826.12 2439.18 1826.58 2437.94 1827.49 2436.7 1828.4 2435.01 1830.06 2432.86 1832.46L2429.8 1829.45C2433.1 1826.01 2435.84 1823.57 2438.02 1822.12 2440.21 1820.67 2442.68 1819.94 2445.43 1819.94Z" fill-rule="evenodd"/><text fill="#000000" fill-opacity="0" font-family="Arial,Arial_MSFontService,sans-serif" font-size="53.1201" x="2429.8" y="1866.42">𝑛</text><path d="M2526.03 1845.64 2529.54 1845.64 2529 1855.09 2506.1 1855.09 2506.1 1870.37C2507.49 1869.9 2509 1869.52 2510.64 1869.23 2512.28 1868.95 2513.93 1868.8 2515.6 1868.8 2517.99 1868.8 2520.16 1869.13 2522.1 1869.8 2524.04 1870.46 2525.71 1871.41 2527.1 1872.65 2528.49 1873.89 2529.57 1875.38 2530.34 1877.14 2531.11 1878.9 2531.5 1880.87 2531.5 1883.06 2531.5 1885.56 2531.07 1887.79 2530.21 1889.74 2529.35 1891.69 2528.12 1893.35 2526.52 1894.72 2524.91 1896.09 2522.96 1897.13 2520.66 1897.85 2518.35 1898.56 2515.75 1898.92 2512.86 1898.92 2510.57 1898.92 2508.23 1898.7 2505.83 1898.26 2503.44 1897.81 2500.95 1897.16 2498.37 1896.3L2498.37 1887.63 2503.37 1887.63C2504.15 1890.26 2505.32 1892.14 2506.89 1893.28 2508.45 1894.41 2510.51 1894.97 2513.06 1894.97 2516.47 1894.97 2519.05 1894.09 2520.79 1892.32 2522.54 1890.55 2523.41 1887.77 2523.41 1884 2523.41 1880.38 2522.49 1877.69 2520.64 1875.93 2518.79 1874.17 2516.2 1873.3 2512.86 1873.3 2511.98 1873.3 2511.18 1873.31 2510.46 1873.33 2509.74 1873.36 2509.03 1873.43 2508.33 1873.53 2507.63 1873.63 2506.93 1873.78 2506.24 1873.96 2505.55 1874.14 2504.78 1874.35 2503.92 1874.58L2500.71 1872.83 2500.71 1848.26 2522.35 1848.26C2522.98 1848.23 2523.48 1848.19 2523.86 1848.14 2524.24 1848.09 2524.54 1847.97 2524.78 1847.79 2525.01 1847.6 2525.22 1847.35 2525.4 1847.03 2525.58 1846.7 2525.79 1846.24 2526.03 1845.64Z" fill-rule="evenodd"/><text fill="#000000" fill-opacity="0" font-family="Arial,Arial_MSFontService,sans-serif" font-size="53.2812" x="2498.37" y="1892.26">5</text><path d="M2516.58 1781.7C2514.75 1781.7 2513.23 1782.18 2512.01 1783.13 2510.78 1784.08 2509.81 1785.47 2509.1 1787.31 2508.38 1789.15 2507.87 1791.39 2507.57 1794.03 2507.27 1796.67 2507.12 1799.67 2507.12 1803.03 2507.12 1806.91 2507.31 1810.27 2507.69 1813.09 2508.07 1815.92 2508.65 1818.24 2509.45 1820.06 2510.24 1821.89 2511.24 1823.23 2512.44 1824.09 2513.64 1824.95 2515.07 1825.38 2516.73 1825.38 2518.3 1825.38 2519.66 1824.97 2520.84 1824.17 2522.01 1823.36 2522.98 1822.1 2523.75 1820.4 2524.51 1818.69 2525.09 1816.53 2525.48 1813.91 2525.87 1811.29 2526.07 1808.2 2526.07 1804.63 2526.07 1800.62 2525.86 1797.17 2525.43 1794.28 2525 1791.39 2524.39 1789.02 2523.61 1787.15 2522.83 1785.29 2521.84 1783.92 2520.66 1783.03 2519.48 1782.15 2518.11 1781.7 2516.58 1781.7ZM2516.73 1777.92C2519.83 1777.92 2522.48 1778.5 2524.68 1779.65 2526.88 1780.81 2528.68 1782.47 2530.07 1784.62 2531.47 1786.76 2532.49 1789.39 2533.14 1792.49 2533.79 1795.59 2534.12 1799.09 2534.12 1802.99 2534.12 1811.67 2532.58 1818.22 2529.51 1822.66 2526.43 1827.1 2521.98 1829.32 2516.15 1829.32 2510.37 1829.32 2506.07 1827.23 2503.26 1823.03 2500.45 1818.84 2499.04 1812.49 2499.04 1803.97 2499.04 1799.52 2499.48 1795.66 2500.35 1792.41 2501.22 1789.15 2502.44 1786.45 2504.02 1784.3 2505.59 1782.15 2507.46 1780.55 2509.62 1779.5 2511.79 1778.44 2514.16 1777.92 2516.73 1777.92Z" fill-rule="evenodd"/><text fill="#000000" fill-opacity="0" font-family="Arial,Arial_MSFontService,sans-serif" font-size="51.4062" x="2499.04" y="1822.9">0</text><path d="M3054.62 1817.95C3056.88 1817.95 3058.66 1818.69 3059.96 1820.18 3061.27 1821.66 3061.93 1823.61 3061.93 1826.01 3061.93 1827.9 3061.5 1830.02 3060.64 1832.34L3061.28 1832.56C3064.79 1827.62 3068.13 1823.96 3071.3 1821.57 3074.47 1819.19 3077.73 1818 3081.1 1818 3084.43 1818 3086.99 1818.96 3088.78 1820.88 3090.57 1822.79 3091.47 1825.45 3091.47 1828.85 3091.47 1831.11 3090.95 1834.31 3089.91 1838.47L3086.42 1852.54C3085.45 1856.44 3084.97 1859.2 3084.97 1860.81 3084.97 1862.24 3085.2 1863.28 3085.67 1863.93 3086.13 1864.57 3086.86 1864.89 3087.87 1864.89 3088.94 1864.89 3090.09 1864.45 3091.31 1863.58 3092.52 1862.7 3094.24 1861.03 3096.46 1858.55L3099.52 1861.56C3096.44 1864.86 3093.76 1867.26 3091.47 1868.79 3089.17 1870.31 3086.56 1871.07 3083.62 1871.07 3081.3 1871.07 3079.44 1870.24 3078.04 1868.57 3076.64 1866.91 3075.94 1864.79 3075.94 1862.21 3075.94 1859.88 3076.53 1856.46 3077.72 1851.95L3080.08 1842.66C3080.94 1839.29 3081.5 1836.8 3081.77 1835.19 3082.04 1833.58 3082.17 1832.27 3082.17 1831.27 3082.17 1828.8 3081.76 1827.02 3080.94 1825.93 3080.12 1824.83 3078.77 1824.29 3076.91 1824.29 3075.41 1824.29 3073.79 1824.89 3072.05 1826.09 3070.31 1827.29 3068.47 1829.09 3066.52 1831.51 3064.57 1833.93 3063 1836.27 3061.82 1838.55 3060.64 1840.82 3059.67 1843.62 3058.92 1846.95L3053.81 1870.21 3044.52 1870.21 3052.36 1836.16C3053.15 1832.72 3053.55 1830.07 3053.55 1828.21 3053.55 1826.78 3053.31 1825.74 3052.85 1825.09 3052.38 1824.45 3051.65 1824.13 3050.65 1824.13 3049.54 1824.13 3048.36 1824.58 3047.13 1825.5 3045.89 1826.41 3044.2 1828.06 3042.05 1830.46L3038.99 1827.46C3042.28 1824.02 3045.02 1821.57 3047.21 1820.12 3049.39 1818.67 3051.86 1817.95 3054.62 1817.95Z" fill-rule="evenodd"/><text fill="#000000" fill-opacity="0" font-family="Arial,Arial_MSFontService,sans-serif" font-size="53.1201" x="3038.99" y="1864.43">𝑛</text><path d="M3125.57 1869.27C3123.82 1869.27 3122.21 1869.5 3120.74 1869.97 3119.27 1870.44 3117.87 1871.08 3116.54 1871.89 3116 1872.25 3115.57 1872.59 3115.27 1872.9 3114.97 1873.21 3114.75 1873.58 3114.61 1874.01 3114.47 1874.44 3114.37 1874.98 3114.32 1875.62 3114.26 1876.25 3114.24 1877.12 3114.24 1878.21 3114.24 1887.43 3117.58 1892.04 3124.28 1892.04 3126.1 1892.04 3127.67 1891.77 3128.98 1891.24 3130.3 1890.71 3131.37 1889.94 3132.21 1888.94 3133.04 1887.93 3133.65 1886.7 3134.04 1885.22 3134.43 1883.75 3134.63 1882.08 3134.63 1880.21 3134.63 1876.72 3133.85 1874.02 3132.28 1872.12 3130.72 1870.22 3128.48 1869.27 3125.57 1869.27ZM3135.92 1844.58C3136.23 1844.95 3136.52 1845.3 3136.78 1845.64 3137.04 1845.97 3137.32 1846.31 3137.64 1846.65L3137.64 1848.96C3134.49 1848.9 3131.65 1849.32 3129.12 1850.21 3126.59 1851.09 3124.37 1852.39 3122.44 1854.09 3120.51 1855.8 3118.9 1857.89 3117.6 1860.38 3116.3 1862.87 3115.28 1865.67 3114.55 1868.8L3114.98 1868.99C3116.05 1868.27 3117.1 1867.63 3118.14 1867.1 3119.19 1866.57 3120.24 1866.12 3121.31 1865.77 3122.38 1865.42 3123.48 1865.17 3124.63 1865.01 3125.77 1864.85 3127 1864.78 3128.3 1864.78 3130.59 1864.78 3132.62 1865.11 3134.37 1865.79 3136.13 1866.47 3137.62 1867.46 3138.85 1868.76 3140.07 1870.06 3141 1871.62 3141.62 1873.45 3142.25 1875.27 3142.56 1877.3 3142.56 1879.54 3142.56 1881.91 3142.17 1884.11 3141.39 1886.14 3140.61 1888.17 3139.43 1889.92 3137.87 1891.38 3136.31 1892.84 3134.37 1893.97 3132.07 1894.78 3129.77 1895.58 3127.06 1895.99 3123.96 1895.99 3118.11 1895.99 3113.68 1894.31 3110.7 1890.97 3107.72 1887.62 3106.23 1882.69 3106.23 1876.18 3106.23 1873.27 3106.56 1870.47 3107.21 1867.8 3107.86 1865.13 3108.81 1862.65 3110.08 1860.34 3111.34 1858.04 3112.87 1855.95 3114.67 1854.09 3116.46 1852.23 3118.47 1850.62 3120.68 1849.25 3122.9 1847.88 3125.29 1846.8 3127.87 1846.01 3130.45 1845.21 3133.13 1844.74 3135.92 1844.58Z" fill-rule="evenodd"/><text fill="#000000" fill-opacity="0" font-family="Arial,Arial_MSFontService,sans-serif" font-size="51.4062" x="3106.23" y="1889.56">6</text><path d="M3125.77 1780.65C3123.94 1780.65 3122.42 1781.13 3121.2 1782.08 3119.97 1783.03 3119 1784.42 3118.29 1786.26 3117.57 1788.09 3117.06 1790.33 3116.76 1792.97 3116.46 1795.62 3116.31 1798.62 3116.31 1801.98 3116.31 1805.86 3116.5 1809.21 3116.88 1812.04 3117.26 1814.86 3117.84 1817.19 3118.64 1819.01 3119.43 1820.83 3120.43 1822.17 3121.62 1823.03 3122.82 1823.89 3124.26 1824.32 3125.92 1824.32 3127.48 1824.32 3128.85 1823.92 3130.02 1823.11 3131.2 1822.3 3132.17 1821.05 3132.93 1819.34 3133.7 1817.64 3134.28 1815.47 3134.67 1812.86 3135.06 1810.24 3135.26 1807.15 3135.26 1803.58 3135.26 1799.57 3135.04 1796.12 3134.61 1793.23 3134.18 1790.34 3133.58 1787.96 3132.8 1786.1 3132.02 1784.24 3131.03 1782.86 3129.85 1781.98 3128.66 1781.09 3127.3 1780.65 3125.77 1780.65ZM3125.92 1776.86C3129.02 1776.86 3131.67 1777.44 3133.87 1778.6 3136.07 1779.76 3137.87 1781.41 3139.26 1783.56 3140.66 1785.71 3141.68 1788.33 3142.33 1791.43 3142.98 1794.53 3143.3 1798.03 3143.3 1801.94 3143.3 1810.61 3141.77 1817.17 3138.7 1821.61 3135.62 1826.05 3131.17 1828.27 3125.34 1828.27 3119.55 1828.27 3115.26 1826.17 3112.45 1821.98 3109.63 1817.79 3108.23 1811.43 3108.23 1802.92 3108.23 1798.46 3108.66 1794.61 3109.54 1791.35 3110.41 1788.1 3111.63 1785.4 3113.21 1783.25 3114.78 1781.1 3116.65 1779.5 3118.81 1778.44 3120.97 1777.39 3123.34 1776.86 3125.92 1776.86Z" fill-rule="evenodd"/><text fill="#000000" fill-opacity="0" font-family="Arial,Arial_MSFontService,sans-serif" font-size="51.4062" x="3108.23" y="1821.84">0</text><path d="M3658.28 1816.94C3660.54 1816.94 3662.32 1817.68 3663.63 1819.17 3664.94 1820.66 3665.59 1822.6 3665.59 1825 3665.59 1826.9 3665.16 1829.01 3664.3 1831.34L3664.94 1831.55C3668.45 1826.61 3671.79 1822.95 3674.96 1820.57 3678.13 1818.19 3681.4 1816.99 3684.76 1816.99 3688.09 1816.99 3690.65 1817.95 3692.44 1819.87 3694.23 1821.78 3695.13 1824.44 3695.13 1827.84 3695.13 1830.1 3694.61 1833.3 3693.57 1837.46L3690.08 1851.53C3689.11 1855.43 3688.63 1858.19 3688.63 1859.8 3688.63 1861.23 3688.86 1862.27 3689.33 1862.92 3689.79 1863.56 3690.53 1863.88 3691.53 1863.88 3692.61 1863.88 3693.75 1863.45 3694.97 1862.57 3696.19 1861.69 3697.91 1860.02 3700.13 1857.55L3703.19 1860.55C3700.11 1863.85 3697.42 1866.26 3695.13 1867.78 3692.84 1869.3 3690.22 1870.06 3687.29 1870.06 3684.96 1870.06 3683.1 1869.23 3681.7 1867.56 3680.31 1865.9 3679.61 1863.78 3679.61 1861.2 3679.61 1858.87 3680.2 1855.45 3681.38 1850.94L3683.74 1841.65C3684.6 1838.28 3685.17 1835.79 3685.44 1834.18 3685.7 1832.57 3685.84 1831.26 3685.84 1830.26 3685.84 1827.79 3685.43 1826.01 3684.6 1824.92 3683.78 1823.82 3682.44 1823.28 3680.57 1823.28 3679.07 1823.28 3677.45 1823.88 3675.71 1825.08 3673.98 1826.28 3672.13 1828.09 3670.18 1830.5 3668.23 1832.92 3666.66 1835.27 3665.48 1837.54 3664.3 1839.81 3663.33 1842.61 3662.58 1845.94L3657.48 1869.2 3648.19 1869.2 3656.03 1835.15C3656.82 1831.71 3657.21 1829.06 3657.21 1827.2 3657.21 1825.77 3656.98 1824.73 3656.51 1824.08 3656.05 1823.44 3655.31 1823.12 3654.31 1823.12 3653.2 1823.12 3652.03 1823.57 3650.79 1824.49 3649.56 1825.4 3647.86 1827.06 3645.72 1829.46L3642.65 1826.45C3645.95 1823.01 3648.69 1820.57 3650.87 1819.12 3653.06 1817.67 3655.53 1816.94 3658.28 1816.94Z" fill-rule="evenodd"/><text fill="#000000" fill-opacity="0" font-family="Arial,Arial_MSFontService,sans-serif" font-size="53.1201" x="3642.65" y="1863.42">𝑛</text><path d="M3711.73 1843.92 3745.71 1843.92 3745.71 1845.8 3722.78 1893.96 3716.81 1893.96 3716.81 1892.21 3737.82 1851.35 3737.82 1850.76 3721.26 1850.76C3720.12 1850.76 3719.22 1850.85 3718.59 1851.03 3717.95 1851.22 3717.38 1851.48 3716.89 1851.82 3716.68 1852 3716.5 1852.19 3716.34 1852.38 3716.18 1852.58 3716.03 1852.84 3715.87 1853.16 3715.71 1853.49 3715.55 1853.92 3715.38 1854.45 3715.21 1854.99 3715.01 1855.67 3714.78 1856.5L3710.87 1856.5Z" fill-rule="evenodd"/><text fill="#000000" fill-opacity="0" font-family="Arial,Arial_MSFontService,sans-serif" font-size="50.0391" x="3710.87" y="1887.71">7</text><path d="M3729.43 1780.01C3727.61 1780.01 3726.08 1780.48 3724.86 1781.43 3723.64 1782.39 3722.67 1783.78 3721.95 1785.61 3721.23 1787.45 3720.73 1789.69 3720.43 1792.33 3720.13 1794.98 3719.98 1797.98 3719.98 1801.34 3719.98 1805.22 3720.17 1808.57 3720.54 1811.4 3720.92 1814.22 3721.51 1816.55 3722.3 1818.37 3723.09 1820.19 3724.09 1821.53 3725.29 1822.39 3726.49 1823.25 3727.92 1823.68 3729.59 1823.68 3731.15 1823.68 3732.52 1823.28 3733.69 1822.47 3734.86 1821.66 3735.83 1820.41 3736.6 1818.7 3737.37 1816.99 3737.95 1814.83 3738.34 1812.22 3738.73 1809.6 3738.92 1806.51 3738.92 1802.94 3738.92 1798.93 3738.71 1795.48 3738.28 1792.59 3737.85 1789.7 3737.24 1787.32 3736.46 1785.46 3735.68 1783.6 3734.7 1782.22 3733.51 1781.34 3732.33 1780.45 3730.97 1780.01 3729.43 1780.01ZM3729.59 1776.22C3732.68 1776.22 3735.33 1776.8 3737.54 1777.96 3739.74 1779.12 3741.53 1780.77 3742.93 1782.92 3744.32 1785.07 3745.34 1787.69 3745.99 1790.79 3746.64 1793.89 3746.97 1797.39 3746.97 1801.3 3746.97 1809.97 3745.43 1816.53 3742.36 1820.97 3739.29 1825.41 3734.83 1827.63 3729 1827.63 3723.22 1827.63 3718.92 1825.53 3716.11 1821.34 3713.3 1817.14 3711.89 1810.79 3711.89 1802.27 3711.89 1797.82 3712.33 1793.97 3713.2 1790.71 3714.07 1787.46 3715.3 1784.76 3716.87 1782.61 3718.45 1780.46 3720.32 1778.86 3722.48 1777.8 3724.64 1776.75 3727.01 1776.22 3729.59 1776.22Z" fill-rule="evenodd"/><text fill="#000000" fill-opacity="0" font-family="Arial,Arial_MSFontService,sans-serif" font-size="51.4062" x="3711.89" y="1821.2">0</text><path d="M4265.49 1817.95C4267.75 1817.95 4269.53 1818.69 4270.84 1820.18 4272.15 1821.66 4272.8 1823.61 4272.8 1826.01 4272.8 1827.9 4272.37 1830.02 4271.51 1832.34L4272.15 1832.56C4275.66 1827.62 4279 1823.96 4282.17 1821.57 4285.34 1819.19 4288.61 1818 4291.97 1818 4295.3 1818 4297.86 1818.96 4299.65 1820.88 4301.45 1822.79 4302.34 1825.45 4302.34 1828.85 4302.34 1831.11 4301.82 1834.31 4300.78 1838.47L4297.29 1852.54C4296.32 1856.44 4295.84 1859.2 4295.84 1860.81 4295.84 1862.24 4296.07 1863.28 4296.54 1863.93 4297 1864.57 4297.74 1864.89 4298.74 1864.89 4299.82 1864.89 4300.96 1864.45 4302.18 1863.58 4303.4 1862.7 4305.12 1861.03 4307.34 1858.55L4310.4 1861.56C4307.32 1864.86 4304.63 1867.26 4302.34 1868.79 4300.05 1870.31 4297.43 1871.07 4294.5 1871.07 4292.17 1871.07 4290.31 1870.24 4288.91 1868.57 4287.52 1866.91 4286.82 1864.79 4286.82 1862.21 4286.82 1859.88 4287.41 1856.46 4288.59 1851.95L4290.95 1842.66C4291.81 1839.29 4292.38 1836.8 4292.65 1835.19 4292.91 1833.58 4293.05 1832.27 4293.05 1831.27 4293.05 1828.8 4292.64 1827.02 4291.81 1825.93 4290.99 1824.83 4289.65 1824.29 4287.78 1824.29 4286.28 1824.29 4284.66 1824.89 4282.92 1826.09 4281.19 1827.29 4279.34 1829.09 4277.39 1831.51 4275.44 1833.93 4273.87 1836.27 4272.69 1838.55 4271.51 1840.82 4270.54 1843.62 4269.79 1846.95L4264.69 1870.21 4255.4 1870.21 4263.24 1836.16C4264.03 1832.72 4264.42 1830.07 4264.42 1828.21 4264.42 1826.78 4264.19 1825.74 4263.72 1825.09 4263.26 1824.45 4262.52 1824.13 4261.52 1824.13 4260.41 1824.13 4259.24 1824.58 4258 1825.5 4256.77 1826.41 4255.07 1828.06 4252.93 1830.46L4249.86 1827.46C4253.16 1824.02 4255.9 1821.57 4258.08 1820.12 4260.27 1818.67 4262.74 1817.95 4265.49 1817.95Z" fill-rule="evenodd"/><text fill="#000000" fill-opacity="0" font-family="Arial,Arial_MSFontService,sans-serif" font-size="53.1201" x="4249.86" y="1864.43">𝑛</text><path d="M4334.76 1871.3C4332.99 1871.3 4331.46 1871.54 4330.17 1872.02 4328.88 1872.5 4327.82 1873.18 4326.99 1874.05 4326.15 1874.93 4325.55 1875.98 4325.17 1877.22 4324.79 1878.45 4324.6 1879.83 4324.6 1881.34 4324.6 1882.95 4324.81 1884.42 4325.23 1885.73 4325.65 1887.05 4326.29 1888.17 4327.16 1889.11 4328.04 1890.05 4329.12 1890.77 4330.41 1891.28 4331.69 1891.79 4333.2 1892.04 4334.92 1892.04 4336.71 1892.04 4338.23 1891.77 4339.47 1891.24 4340.7 1890.71 4341.72 1889.98 4342.51 1889.07 4343.31 1888.16 4343.89 1887.09 4344.25 1885.87 4344.62 1884.65 4344.8 1883.37 4344.8 1882.04 4344.8 1880.35 4344.57 1878.83 4344.1 1877.49 4343.63 1876.15 4342.96 1875.03 4342.08 1874.13 4341.21 1873.23 4340.15 1872.54 4338.9 1872.04 4337.65 1871.55 4336.27 1871.3 4334.76 1871.3ZM4334.84 1848.37C4331.71 1848.37 4329.33 1849.17 4327.69 1850.77 4326.05 1852.37 4325.23 1854.65 4325.23 1857.59 4325.23 1859.1 4325.42 1860.46 4325.8 1861.67 4326.17 1862.88 4326.77 1863.92 4327.57 1864.8 4328.38 1865.67 4329.4 1866.33 4330.62 1866.77 4331.84 1867.21 4333.29 1867.43 4334.96 1867.43 4336.75 1867.43 4338.26 1867.18 4339.47 1866.69 4340.68 1866.2 4341.66 1865.52 4342.4 1864.66 4343.14 1863.8 4343.68 1862.8 4344.02 1861.67 4344.36 1860.54 4344.53 1859.33 4344.53 1858.06 4344.53 1856.49 4344.29 1855.11 4343.8 1853.92 4343.32 1852.72 4342.66 1851.7 4341.81 1850.85 4340.97 1850 4339.95 1849.38 4338.76 1848.97 4337.58 1848.57 4336.27 1848.37 4334.84 1848.37ZM4334.96 1844.58C4338 1844.58 4340.63 1844.89 4342.83 1845.52 4345.03 1846.14 4346.84 1847.01 4348.26 1848.12 4349.68 1849.22 4350.73 1850.54 4351.42 1852.08 4352.11 1853.62 4352.46 1855.32 4352.46 1857.2 4352.46 1859.85 4351.73 1862.12 4350.27 1863.99 4348.81 1865.87 4346.6 1867.48 4343.63 1868.84 4343.63 1868.92 4343.63 1869.02 4343.65 1869.15 4343.66 1869.28 4343.67 1869.39 4343.67 1869.46 4346.74 1870.56 4349.03 1872.16 4350.54 1874.27 4352.05 1876.38 4352.81 1878.8 4352.81 1881.53 4352.81 1883.7 4352.38 1885.67 4351.52 1887.45 4350.66 1889.24 4349.42 1890.77 4347.81 1892.06 4346.19 1893.35 4344.25 1894.34 4341.99 1895.03 4339.72 1895.72 4337.17 1896.06 4334.33 1896.06 4331.67 1896.06 4329.26 1895.75 4327.08 1895.13 4324.91 1894.5 4323.05 1893.59 4321.5 1892.39 4319.95 1891.2 4318.75 1889.73 4317.91 1888 4317.06 1886.27 4316.64 1884.32 4316.64 1882.16 4316.64 1880.6 4316.85 1879.21 4317.28 1878 4317.71 1876.79 4318.32 1875.7 4319.1 1874.74 4319.88 1873.77 4320.83 1872.91 4321.97 1872.16 4323.1 1871.4 4324.37 1870.67 4325.78 1869.97L4325.78 1869.46C4322.86 1868.21 4320.72 1866.62 4319.35 1864.68 4317.98 1862.74 4317.3 1860.43 4317.3 1857.74 4317.25 1855.79 4317.68 1854 4318.59 1852.37 4319.5 1850.75 4320.76 1849.36 4322.36 1848.21 4323.96 1847.07 4325.85 1846.18 4328.04 1845.54 4330.23 1844.9 4332.53 1844.58 4334.96 1844.58Z" fill-rule="evenodd"/><text fill="#000000" fill-opacity="0" font-family="Arial,Arial_MSFontService,sans-serif" font-size="51.4844" x="4316.64" y="1889.63">8</text><path d="M4336.64 1780.65C4334.82 1780.65 4333.29 1781.13 4332.07 1782.08 4330.85 1783.03 4329.88 1784.42 4329.16 1786.26 4328.44 1788.09 4327.94 1790.33 4327.64 1792.97 4327.34 1795.62 4327.19 1798.62 4327.19 1801.98 4327.19 1805.86 4327.38 1809.21 4327.75 1812.04 4328.13 1814.86 4328.72 1817.19 4329.51 1819.01 4330.31 1820.83 4331.3 1822.17 4332.5 1823.03 4333.7 1823.89 4335.13 1824.32 4336.8 1824.32 4338.36 1824.32 4339.73 1823.92 4340.9 1823.11 4342.07 1822.3 4343.04 1821.05 4343.81 1819.34 4344.58 1817.64 4345.16 1815.47 4345.55 1812.86 4345.94 1810.24 4346.13 1807.15 4346.13 1803.58 4346.13 1799.57 4345.92 1796.12 4345.49 1793.23 4345.06 1790.34 4344.45 1787.96 4343.67 1786.1 4342.89 1784.24 4341.91 1782.86 4340.72 1781.98 4339.54 1781.09 4338.18 1780.65 4336.64 1780.65ZM4336.8 1776.86C4339.9 1776.86 4342.54 1777.44 4344.75 1778.6 4346.95 1779.76 4348.74 1781.41 4350.14 1783.56 4351.53 1785.71 4352.55 1788.33 4353.2 1791.43 4353.85 1794.53 4354.18 1798.03 4354.18 1801.94 4354.18 1810.61 4352.64 1817.17 4349.57 1821.61 4346.5 1826.05 4342.04 1828.27 4336.21 1828.27 4330.43 1828.27 4326.13 1826.17 4323.32 1821.98 4320.51 1817.79 4319.1 1811.43 4319.1 1802.92 4319.1 1798.46 4319.54 1794.61 4320.41 1791.35 4321.28 1788.1 4322.51 1785.4 4324.08 1783.25 4325.66 1781.1 4327.52 1779.5 4329.69 1778.44 4331.85 1777.39 4334.22 1776.86 4336.8 1776.86Z" fill-rule="evenodd"/><text fill="#000000" fill-opacity="0" font-family="Arial,Arial_MSFontService,sans-serif" font-size="51.4062" x="4319.1" y="1821.84">0</text><path d="M1057.12 1121.61C1059.38 1121.61 1061.16 1122.35 1062.47 1123.83 1063.77 1125.32 1064.43 1127.26 1064.43 1129.66 1064.43 1131.56 1064 1133.67 1063.14 1136L1063.78 1136.21C1067.29 1131.27 1070.63 1127.61 1073.8 1125.23 1076.97 1122.85 1080.24 1121.66 1083.6 1121.66 1086.93 1121.66 1089.49 1122.62 1091.28 1124.53 1093.07 1126.45 1093.97 1129.11 1093.97 1132.51 1093.97 1134.76 1093.45 1137.97 1092.41 1142.12L1088.92 1156.2C1087.95 1160.1 1087.47 1162.86 1087.47 1164.47 1087.47 1165.9 1087.7 1166.94 1088.17 1167.58 1088.63 1168.23 1089.37 1168.55 1090.37 1168.55 1091.44 1168.55 1092.59 1168.11 1093.81 1167.23 1095.03 1166.36 1096.74 1164.68 1098.96 1162.21L1102.03 1165.22C1098.95 1168.51 1096.26 1170.92 1093.97 1172.44 1091.68 1173.96 1089.06 1174.73 1086.13 1174.73 1083.8 1174.73 1081.94 1173.89 1080.54 1172.23 1079.15 1170.56 1078.45 1168.44 1078.45 1165.86 1078.45 1163.54 1079.04 1160.12 1080.22 1155.6L1082.58 1146.31C1083.44 1142.95 1084.01 1140.46 1084.27 1138.85 1084.54 1137.24 1084.68 1135.93 1084.68 1134.93 1084.68 1132.46 1084.27 1130.67 1083.44 1129.58 1082.62 1128.49 1081.28 1127.94 1079.41 1127.94 1077.91 1127.94 1076.29 1128.54 1074.55 1129.74 1072.82 1130.94 1070.97 1132.75 1069.02 1135.17 1067.07 1137.58 1065.5 1139.93 1064.32 1142.2 1063.14 1144.48 1062.17 1147.28 1061.42 1150.61L1056.32 1173.87 1047.03 1173.87 1054.87 1139.81C1055.66 1136.38 1056.05 1133.73 1056.05 1131.86 1056.05 1130.43 1055.82 1129.39 1055.35 1128.75 1054.89 1128.1 1054.15 1127.78 1053.15 1127.78 1052.04 1127.78 1050.87 1128.24 1049.63 1129.15 1048.4 1130.07 1046.7 1131.72 1044.56 1134.12L1041.49 1131.11C1044.79 1127.67 1047.53 1125.23 1049.71 1123.78 1051.9 1122.33 1054.37 1121.61 1057.12 1121.61Z" fill-rule="evenodd"/><text fill="#000000" fill-opacity="0" font-family="Arial,Arial_MSFontService,sans-serif" font-size="53.1201" x="1041.49" y="1168.09">𝑛</text><path d="M1127.05 1147.96 1129.43 1147.96C1129.38 1149.39 1129.34 1150.67 1129.31 1151.81 1129.29 1152.94 1129.27 1154.04 1129.26 1155.11 1129.24 1156.18 1129.24 1157.23 1129.24 1158.27L1129.24 1187.96C1129.24 1188.77 1129.26 1189.46 1129.31 1190.05 1129.37 1190.64 1129.45 1191.13 1129.57 1191.53 1129.69 1191.94 1129.84 1192.28 1130.04 1192.57 1130.23 1192.86 1130.46 1193.1 1130.72 1193.31 1131.03 1193.62 1131.45 1193.86 1131.97 1194.03 1132.49 1194.2 1133.16 1194.35 1133.96 1194.46 1134.77 1194.58 1135.74 1194.67 1136.87 1194.74 1138.01 1194.8 1139.37 1194.85 1140.96 1194.87L1140.96 1198.27 1109.98 1198.27 1109.98 1194.87C1111.52 1194.82 1112.82 1194.76 1113.88 1194.7 1114.95 1194.63 1115.86 1194.54 1116.62 1194.42 1117.37 1194.31 1117.98 1194.18 1118.44 1194.03 1118.89 1193.89 1119.29 1193.72 1119.63 1193.51 1119.99 1193.27 1120.3 1193.02 1120.56 1192.75 1120.82 1192.47 1121.03 1192.13 1121.19 1191.71 1121.35 1191.29 1121.47 1190.79 1121.56 1190.19 1121.65 1189.59 1121.7 1188.85 1121.7 1187.96L1121.7 1159.95C1121.7 1158.94 1121.5 1158.22 1121.11 1157.8 1120.72 1157.39 1120.16 1157.18 1119.43 1157.18 1118.62 1157.18 1117.43 1157.6 1115.84 1158.43 1114.25 1159.26 1112.19 1160.5 1109.67 1162.14 1109.33 1161.54 1109.02 1160.94 1108.73 1160.34 1108.44 1159.74 1108.14 1159.13 1107.83 1158.51 1111.06 1156.74 1114.26 1154.97 1117.42 1153.21 1120.58 1151.46 1123.79 1149.7 1127.05 1147.96Z" fill-rule="evenodd"/><text fill="#000000" fill-opacity="0" font-family="Arial,Arial_MSFontService,sans-serif" font-size="50.3125" x="1107.83" y="1191.98">1</text><path d="M1129.11 1081.34 1131.49 1081.34C1131.44 1082.77 1131.4 1084.06 1131.38 1085.19 1131.35 1086.32 1131.33 1087.42 1131.32 1088.49 1131.31 1089.56 1131.3 1090.61 1131.3 1091.65L1131.3 1121.34C1131.3 1122.15 1131.32 1122.85 1131.38 1123.43 1131.43 1124.02 1131.51 1124.51 1131.63 1124.92 1131.75 1125.32 1131.9 1125.66 1132.1 1125.95 1132.29 1126.24 1132.52 1126.48 1132.78 1126.69 1133.1 1127.01 1133.51 1127.25 1134.03 1127.42 1134.55 1127.58 1135.22 1127.73 1136.03 1127.85 1136.83 1127.96 1137.8 1128.05 1138.94 1128.12 1140.07 1128.18 1141.43 1128.23 1143.02 1128.26L1143.02 1131.65 1112.04 1131.65 1112.04 1128.26C1113.58 1128.2 1114.88 1128.14 1115.95 1128.08 1117.02 1128.01 1117.93 1127.92 1118.68 1127.81 1119.44 1127.69 1120.04 1127.56 1120.5 1127.42 1120.95 1127.27 1121.35 1127.1 1121.69 1126.89 1122.05 1126.65 1122.37 1126.4 1122.63 1126.13 1122.89 1125.85 1123.1 1125.51 1123.25 1125.09 1123.41 1124.67 1123.53 1124.17 1123.62 1123.57 1123.71 1122.97 1123.76 1122.23 1123.76 1121.34L1123.76 1093.33C1123.76 1092.32 1123.56 1091.6 1123.17 1091.19 1122.78 1090.77 1122.22 1090.56 1121.49 1090.56 1120.69 1090.56 1119.49 1090.98 1117.9 1091.81 1116.31 1092.64 1114.25 1093.88 1111.73 1095.52 1111.39 1094.92 1111.08 1094.32 1110.79 1093.72 1110.5 1093.13 1110.21 1092.51 1109.89 1091.89 1113.12 1090.12 1116.32 1088.35 1119.48 1086.6 1122.65 1084.84 1125.86 1083.09 1129.11 1081.34Z" fill-rule="evenodd"/><text fill="#000000" fill-opacity="0" font-family="Arial,Arial_MSFontService,sans-serif" font-size="50.3125" x="1109.89" y="1125.36">1</text><path d="M2012.86 1121.61C2015.12 1121.61 2016.9 1122.35 2018.21 1123.83 2019.52 1125.32 2020.17 1127.26 2020.17 1129.66 2020.17 1131.56 2019.74 1133.67 2018.88 1136L2019.52 1136.21C2023.03 1131.27 2026.37 1127.61 2029.54 1125.23 2032.71 1122.85 2035.98 1121.66 2039.34 1121.66 2042.67 1121.66 2045.23 1122.62 2047.02 1124.53 2048.82 1126.45 2049.71 1129.11 2049.71 1132.51 2049.71 1134.76 2049.19 1137.97 2048.15 1142.12L2044.66 1156.2C2043.69 1160.1 2043.21 1162.86 2043.21 1164.47 2043.21 1165.9 2043.44 1166.94 2043.91 1167.58 2044.38 1168.23 2045.11 1168.55 2046.11 1168.55 2047.19 1168.55 2048.33 1168.11 2049.55 1167.23 2050.77 1166.36 2052.49 1164.68 2054.71 1162.21L2057.77 1165.22C2054.69 1168.51 2052 1170.92 2049.71 1172.44 2047.42 1173.96 2044.8 1174.73 2041.87 1174.73 2039.54 1174.73 2037.68 1173.89 2036.28 1172.23 2034.89 1170.56 2034.19 1168.44 2034.19 1165.86 2034.19 1163.54 2034.78 1160.12 2035.96 1155.6L2038.32 1146.31C2039.18 1142.95 2039.75 1140.46 2040.02 1138.85 2040.28 1137.24 2040.42 1135.93 2040.42 1134.93 2040.42 1132.46 2040.01 1130.67 2039.18 1129.58 2038.36 1128.49 2037.02 1127.94 2035.15 1127.94 2033.65 1127.94 2032.03 1128.54 2030.29 1129.74 2028.56 1130.94 2026.71 1132.75 2024.76 1135.17 2022.81 1137.58 2021.24 1139.93 2020.06 1142.2 2018.88 1144.48 2017.91 1147.28 2017.16 1150.61L2012.06 1173.87 2002.77 1173.87 2010.61 1139.81C2011.4 1136.38 2011.79 1133.73 2011.79 1131.86 2011.79 1130.43 2011.56 1129.39 2011.09 1128.75 2010.63 1128.1 2009.89 1127.78 2008.89 1127.78 2007.78 1127.78 2006.61 1128.24 2005.37 1129.15 2004.14 1130.07 2002.44 1131.72 2000.3 1134.12L1997.23 1131.11C2000.53 1127.67 2003.27 1125.23 2005.45 1123.78 2007.64 1122.33 2010.11 1121.61 2012.86 1121.61Z" fill-rule="evenodd"/><text fill="#000000" fill-opacity="0" font-family="Arial,Arial_MSFontService,sans-serif" font-size="53.1201" x="1997.23" y="1168.09">𝑛</text><path d="M2082.29 1147.82C2085 1147.82 2087.31 1148.13 2089.22 1148.74 2091.13 1149.35 2092.69 1150.18 2093.89 1151.22 2095.09 1152.26 2095.95 1153.51 2096.49 1154.97 2097.02 1156.43 2097.29 1158.01 2097.29 1159.7 2097.29 1160.71 2097.22 1161.66 2097.07 1162.53 2096.93 1163.4 2096.68 1164.26 2096.33 1165.11 2095.98 1165.96 2095.52 1166.81 2094.94 1167.67 2094.37 1168.53 2093.65 1169.44 2092.79 1170.4 2092.14 1171.24 2091.3 1172.2 2090.26 1173.29 2089.21 1174.39 2088.07 1175.56 2086.84 1176.81 2085.6 1178.06 2084.31 1179.36 2082.95 1180.71 2081.6 1182.07 2080.28 1183.41 2079.01 1184.74 2077.73 1186.07 2076.56 1187.36 2075.49 1188.61 2074.42 1189.86 2073.55 1191 2072.87 1192.04L2087.33 1192.04C2088.55 1192.04 2089.53 1192 2090.26 1191.91 2090.98 1191.81 2091.59 1191.61 2092.07 1191.3 2092.55 1190.99 2092.96 1190.51 2093.3 1189.87 2093.64 1189.24 2094.03 1188.36 2094.47 1187.24L2098.11 1187.24C2097.98 1189.09 2097.85 1190.95 2097.74 1192.82 2097.62 1194.7 2097.5 1196.56 2097.36 1198.41L2064.28 1198.41 2064.28 1196.38C2064.9 1194.97 2065.63 1193.59 2066.47 1192.22 2067.3 1190.85 2068.24 1189.46 2069.28 1188.06 2070.32 1186.65 2071.51 1185.2 2072.83 1183.7 2074.16 1182.21 2075.63 1180.65 2077.25 1179.04 2079.7 1176.59 2081.69 1174.5 2083.22 1172.77 2084.76 1171.03 2085.97 1169.49 2086.86 1168.14 2087.74 1166.78 2088.35 1165.53 2088.67 1164.39 2089 1163.24 2089.16 1162.02 2089.16 1160.71 2089.16 1159.39 2088.97 1158.16 2088.6 1157.04 2088.22 1155.92 2087.68 1154.97 2086.97 1154.19 2086.27 1153.41 2085.38 1152.8 2084.3 1152.36 2083.22 1151.91 2081.97 1151.69 2080.57 1151.69 2078.15 1151.69 2076.11 1152.35 2074.47 1153.66 2072.83 1154.98 2071.56 1156.89 2070.65 1159.39L2065.53 1159.39 2065.53 1151.77C2068.86 1150.39 2071.93 1149.39 2074.73 1148.76 2077.53 1148.14 2080.05 1147.82 2082.29 1147.82Z" fill-rule="evenodd"/><text fill="#000000" fill-opacity="0" font-family="Arial,Arial_MSFontService,sans-serif" font-size="50.5859" x="2064.28" y="1192.09">2</text><path d="M2084.85 1081.2 2087.24 1081.2C2087.18 1082.64 2087.14 1083.92 2087.12 1085.05 2087.09 1086.18 2087.07 1087.28 2087.06 1088.35 2087.05 1089.42 2087.04 1090.47 2087.04 1091.52L2087.04 1121.2C2087.04 1122.01 2087.07 1122.71 2087.12 1123.29 2087.17 1123.88 2087.25 1124.37 2087.37 1124.78 2087.49 1125.18 2087.65 1125.53 2087.84 1125.81 2088.04 1126.1 2088.26 1126.35 2088.52 1126.56 2088.84 1126.87 2089.25 1127.11 2089.77 1127.28 2090.3 1127.45 2090.96 1127.59 2091.77 1127.71 2092.57 1127.82 2093.54 1127.92 2094.68 1127.98 2095.81 1128.05 2097.17 1128.09 2098.76 1128.12L2098.76 1131.52 2067.78 1131.52 2067.78 1128.12C2069.32 1128.07 2070.62 1128.01 2071.69 1127.94 2072.76 1127.88 2073.67 1127.79 2074.42 1127.67 2075.18 1127.55 2075.78 1127.42 2076.24 1127.28 2076.7 1127.13 2077.09 1126.96 2077.43 1126.75 2077.8 1126.52 2078.11 1126.26 2078.37 1125.99 2078.63 1125.72 2078.84 1125.37 2078.99 1124.95 2079.15 1124.54 2079.27 1124.03 2079.36 1123.43 2079.46 1122.83 2079.5 1122.09 2079.5 1121.2L2079.5 1093.2C2079.5 1092.18 2079.31 1091.46 2078.92 1091.05 2078.52 1090.63 2077.96 1090.42 2077.24 1090.42 2076.43 1090.42 2075.23 1090.84 2073.64 1091.67 2072.05 1092.51 2070 1093.74 2067.47 1095.38 2067.13 1094.78 2066.82 1094.19 2066.53 1093.59 2066.25 1092.99 2065.95 1092.38 2065.63 1091.75 2068.86 1089.98 2072.06 1088.22 2075.22 1086.46 2078.39 1084.7 2081.6 1082.95 2084.85 1081.2Z" fill-rule="evenodd"/><text fill="#000000" fill-opacity="0" font-family="Arial,Arial_MSFontService,sans-serif" font-size="50.3125" x="2065.63" y="1125.23">1</text><path d="M3588.86 1124.7C3591.12 1124.7 3592.9 1125.44 3594.21 1126.93 3595.52 1128.41 3596.17 1130.36 3596.17 1132.75 3596.17 1134.65 3595.74 1136.77 3594.88 1139.09L3595.52 1139.31C3599.03 1134.37 3602.37 1130.7 3605.54 1128.32 3608.71 1125.94 3611.98 1124.75 3615.34 1124.75 3618.67 1124.75 3621.23 1125.71 3623.02 1127.63 3624.81 1129.54 3625.71 1132.2 3625.71 1135.6 3625.71 1137.86 3625.19 1141.06 3624.15 1145.22L3620.66 1159.29C3619.69 1163.19 3619.21 1165.95 3619.21 1167.56 3619.21 1168.99 3619.44 1170.03 3619.91 1170.67 3620.37 1171.32 3621.11 1171.64 3622.11 1171.64 3623.19 1171.64 3624.33 1171.2 3625.55 1170.33 3626.77 1169.45 3628.48 1167.77 3630.7 1165.3L3633.77 1168.31C3630.69 1171.61 3628 1174.01 3625.71 1175.54 3623.42 1177.06 3620.8 1177.82 3617.87 1177.82 3615.54 1177.82 3613.68 1176.99 3612.28 1175.32 3610.89 1173.66 3610.19 1171.53 3610.19 1168.96 3610.19 1166.63 3610.78 1163.21 3611.96 1158.7L3614.32 1149.41C3615.18 1146.04 3615.75 1143.55 3616.01 1141.94 3616.28 1140.33 3616.42 1139.02 3616.42 1138.02 3616.42 1135.55 3616.01 1133.77 3615.18 1132.67 3614.36 1131.58 3613.02 1131.04 3611.15 1131.04 3609.65 1131.04 3608.03 1131.64 3606.29 1132.84 3604.56 1134.04 3602.71 1135.84 3600.76 1138.26 3598.81 1140.68 3597.24 1143.02 3596.06 1145.3 3594.88 1147.57 3593.91 1150.37 3593.16 1153.7L3588.06 1176.96 3578.77 1176.96 3586.61 1142.91C3587.4 1139.47 3587.79 1136.82 3587.79 1134.96 3587.79 1133.52 3587.56 1132.49 3587.09 1131.84 3586.63 1131.2 3585.89 1130.88 3584.89 1130.88 3583.78 1130.88 3582.61 1131.33 3581.37 1132.24 3580.14 1133.16 3578.44 1134.81 3576.3 1137.21L3573.23 1134.21C3576.53 1130.77 3579.27 1128.32 3581.45 1126.87 3583.64 1125.42 3586.11 1124.7 3588.86 1124.7Z" fill-rule="evenodd"/><text fill="#000000" fill-opacity="0" font-family="Arial,Arial_MSFontService,sans-serif" font-size="53.1201" x="3573.23" y="1171.18">𝑛</text><path d="M3658.21 1150.92C3660.29 1150.92 3662.24 1151.14 3664.05 1151.58 3665.86 1152.02 3667.43 1152.69 3668.75 1153.59 3670.08 1154.49 3671.12 1155.61 3671.86 1156.95 3672.6 1158.29 3672.97 1159.85 3672.97 1161.62 3672.97 1163.29 3672.74 1164.76 3672.27 1166.03 3671.8 1167.31 3671.08 1168.47 3670.1 1169.51 3669.13 1170.55 3667.93 1171.5 3666.51 1172.34 3665.09 1173.19 3663.46 1174 3661.61 1174.78L3661.61 1175.25C3663.35 1175.57 3664.98 1176.07 3666.49 1176.76 3668 1177.45 3669.32 1178.32 3670.45 1179.37 3671.59 1180.43 3672.48 1181.65 3673.13 1183.03 3673.78 1184.41 3674.11 1185.93 3674.11 1187.6 3674.11 1189.68 3673.72 1191.61 3672.93 1193.4 3672.15 1195.18 3670.98 1196.72 3669.42 1198.03 3667.86 1199.33 3665.93 1200.34 3663.64 1201.07 3661.35 1201.8 3658.66 1202.17 3655.59 1202.17 3653.17 1202.17 3650.71 1201.93 3648.21 1201.44 3645.71 1200.96 3643.34 1200.33 3641.1 1199.55L3641.1 1191.11 3646.14 1191.11C3646.55 1192.41 3647.05 1193.53 3647.62 1194.45 3648.2 1195.38 3648.87 1196.13 3649.63 1196.72 3650.4 1197.3 3651.29 1197.73 3652.29 1197.99 3653.29 1198.25 3654.43 1198.38 3655.71 1198.38 3659.07 1198.38 3661.61 1197.58 3663.34 1195.98 3665.08 1194.37 3665.94 1191.95 3665.94 1188.69 3665.94 1185.23 3664.8 1182.6 3662.52 1180.82 3660.25 1179.04 3656.87 1178.14 3652.39 1178.14L3648.95 1178.14 3648.95 1174.39C3651.68 1174.26 3654.05 1173.88 3656.04 1173.24 3658.03 1172.6 3659.69 1171.78 3661.02 1170.76 3662.35 1169.74 3663.34 1168.56 3663.99 1167.21 3664.64 1165.85 3664.97 1164.41 3664.97 1162.87 3664.97 1160.37 3664.22 1158.4 3662.74 1156.95 3661.25 1155.51 3659.11 1154.78 3656.29 1154.78 3653.92 1154.78 3651.94 1155.43 3650.34 1156.74 3648.74 1158.04 3647.5 1159.98 3646.65 1162.56L3641.68 1162.56 3641.68 1154.86C3644.76 1153.56 3647.65 1152.58 3650.38 1151.91 3653.1 1151.25 3655.71 1150.92 3658.21 1150.92Z" fill-rule="evenodd"/><text fill="#000000" fill-opacity="0" font-family="Arial,Arial_MSFontService,sans-serif" font-size="51.25" x="3641.1" y="1195.76">3</text><path d="M3660.85 1084.3 3663.23 1084.3C3663.18 1085.73 3663.14 1087.01 3663.12 1088.14 3663.09 1089.28 3663.07 1090.38 3663.06 1091.44 3663.05 1092.51 3663.04 1093.57 3663.04 1094.61L3663.04 1124.3C3663.04 1125.1 3663.07 1125.8 3663.12 1126.39 3663.17 1126.97 3663.25 1127.47 3663.37 1127.87 3663.49 1128.27 3663.64 1128.62 3663.84 1128.91 3664.04 1129.19 3664.26 1129.44 3664.52 1129.65 3664.84 1129.96 3665.25 1130.2 3665.77 1130.37 3666.29 1130.54 3666.96 1130.68 3667.77 1130.8 3668.57 1130.92 3669.54 1131.01 3670.68 1131.07 3671.81 1131.14 3673.17 1131.18 3674.76 1131.21L3674.76 1134.61 3643.78 1134.61 3643.78 1131.21C3645.32 1131.16 3646.62 1131.1 3647.69 1131.03 3648.76 1130.97 3649.67 1130.88 3650.42 1130.76 3651.18 1130.64 3651.78 1130.51 3652.24 1130.37 3652.69 1130.23 3653.09 1130.05 3653.43 1129.84 3653.79 1129.61 3654.11 1129.36 3654.37 1129.08 3654.63 1128.81 3654.84 1128.46 3654.99 1128.05 3655.15 1127.63 3655.27 1127.12 3655.36 1126.52 3655.45 1125.92 3655.5 1125.18 3655.5 1124.3L3655.5 1096.29C3655.5 1095.27 3655.3 1094.56 3654.91 1094.14 3654.52 1093.72 3653.96 1093.52 3653.23 1093.52 3652.43 1093.52 3651.23 1093.93 3649.64 1094.77 3648.05 1095.6 3646 1096.84 3643.47 1098.48 3643.13 1097.88 3642.82 1097.28 3642.53 1096.68 3642.25 1096.08 3641.95 1095.47 3641.63 1094.84 3644.86 1093.07 3648.06 1091.31 3651.22 1089.55 3654.39 1087.79 3657.6 1086.04 3660.85 1084.3Z" fill-rule="evenodd"/><text fill="#000000" fill-opacity="0" font-family="Arial,Arial_MSFontService,sans-serif" font-size="50.3125" x="3641.63" y="1128.32">1</text><rect x="2228" y="573" width="184" height="165" stroke="#10EDF8" stroke-width="10.3125" stroke-miterlimit="8" fill="none"/><text font-family="Calibri,Calibri_MSFontService,sans-serif" font-weight="400" font-size="110" transform="matrix(1 0 0 1 2292.16 693)">7</text><rect x="2412" y="573" width="185" height="165" stroke="#10EDF8" stroke-width="10.3125" stroke-miterlimit="8" fill="none"/><text font-family="Calibri,Calibri_MSFontService,sans-serif" font-weight="400" font-size="110" transform="matrix(1 0 0 1 2449.18 693)">13</text><rect x="2597" y="573" width="185" height="165" stroke="#10EDF8" stroke-width="10.3125" stroke-miterlimit="8" fill="none"/><rect x="402" y="1069" width="185" height="165" stroke="#0D0D0D" stroke-width="10.3125" stroke-miterlimit="8" fill="none"/><text font-family="Calibri,Calibri_MSFontService,sans-serif" font-weight="400" font-size="110" transform="matrix(1 0 0 1 466.596 1188)">3</text><rect x="587" y="1069" width="185" height="165" stroke="#0D0D0D" stroke-width="10.3125" stroke-miterlimit="8" fill="none"/><text font-family="Calibri,Calibri_MSFontService,sans-serif" font-weight="400" font-size="110" transform="matrix(1 0 0 1 651.396 1188)">5</text><rect x="772" y="1069" width="184" height="165" stroke="#0D0D0D" stroke-width="10.3125" stroke-miterlimit="8" fill="none"/><rect x="2228" y="1069" width="184" height="165" stroke="#0D0D0D" stroke-width="10.3125" stroke-miterlimit="8" fill="none"/><text font-family="Calibri,Calibri_MSFontService,sans-serif" font-weight="400" font-size="110" transform="matrix(1 0 0 1 2292.16 1188)">9</text><rect x="2412" y="1069" width="185" height="165" stroke="#0D0D0D" stroke-width="10.3125" stroke-miterlimit="8" fill="none"/><text font-family="Calibri,Calibri_MSFontService,sans-serif" font-weight="400" font-size="110" transform="matrix(1 0 0 1 2449.18 1188)">11</text><rect x="2597" y="1069" width="185" height="165" stroke="#0D0D0D" stroke-width="10.3125" stroke-miterlimit="8" fill="none"/><rect x="3812" y="1069" width="185" height="165" stroke="#0D0D0D" stroke-width="10.3125" stroke-miterlimit="8" fill="none"/><text font-family="Calibri,Calibri_MSFontService,sans-serif" font-weight="400" font-size="110" transform="matrix(1 0 0 1 3848.55 1188)">15</text><rect x="3997" y="1069" width="184" height="165" stroke="#0D0D0D" stroke-width="10.3125" stroke-miterlimit="8" fill="none"/><rect x="4181" y="1069" width="185" height="165" stroke="#0D0D0D" stroke-width="10.3125" stroke-miterlimit="8" fill="none"/></g></svg>