<svg width="1396" height="1255" xmlns="http://www.w3.org/2000/svg" xmlns:xlink="http://www.w3.org/1999/xlink" xml:space="preserve" overflow="hidden"><g transform="translate(-2595 -618)"><path d="M3787 1141.5C3787 1095.94 3823.94 1059 3869.5 1059 3915.06 1059 3952 1095.94 3952 1141.5 3952 1187.06 3915.06 1224 3869.5 1224 3823.94 1224 3787 1187.06 3787 1141.5Z" stroke="#FF0000" stroke-width="10.3125" stroke-miterlimit="8" fill="none" fill-rule="evenodd"/><text font-family="Calibri,Calibri_MSFontService,sans-serif" font-weight="400" font-size="110" transform="matrix(1 0 0 1 3841.24 1178)">4</text><path d="M2866 1141.5C2866 1095.94 2902.94 1059 2948.5 1059 2994.06 1059 3031 1095.94 3031 1141.5 3031 1187.06 2994.06 1224 2948.5 1224 2902.94 1224 2866 1187.06 2866 1141.5Z" stroke="#0D0D0D" stroke-width="10.3125" stroke-miterlimit="8" fill="none" fill-rule="evenodd"/><text font-family="Calibri,Calibri_MSFontService,sans-serif" font-weight="400" font-size="110" transform="matrix(1 0 0 1 2921.19 1178)">2</text><path d="M2636 1563.5C2636 1517.94 2672.94 1481 2718.5 1481 2764.06 1481 2801 1517.94 2801 1563.5 2801 1609.06 2764.06 1646 2718.5 1646 2672.94 1646 2636 1609.06 2636 1563.5Z" stroke="#FF0000" stroke-width="10.3125" stroke-miterlimit="8" fill="none" fill-rule="evenodd"/><text font-family="Calibri,Calibri_MSFontService,sans-serif" font-weight="400" font-size="110" transform="matrix(1 0 0 1 2691.18 1601)">1</text><path d="M3326 717.5C3326 671.936 3362.94 635 3408.5 635 3454.06 635 3491 671.936 3491 717.5 3491 763.063 3454.06 800 3408.5 800 3362.94 800 3326 763.063 3326 717.5Z" stroke="#10EDF8" stroke-width="10.3125" stroke-miterlimit="8" fill="none" fill-rule="evenodd"/><text font-family="Calibri,Calibri_MSFontService,sans-serif" font-weight="400" font-size="110" transform="matrix(1 0 0 1 3380.22 755)">3</text><path d="M3.44066-3.84041 326.599 285.68 319.718 293.361-3.44066 3.84041ZM329.64 274.559 342.36 306.724 308.996 297.601Z" transform="matrix(-1 0 0 1 3349.36 776)"/><path d="M3469.43 772.15 3794.52 1061.72 3787.66 1069.43 3462.57 779.85ZM3797.53 1050.6 3810.34 1082.72 3776.95 1073.7Z"/><path d="M4.40462-2.68072 162.677 257.372 153.868 262.733-4.40462 2.68072ZM168.805 247.606 171.676 282.076 142.378 263.69Z" transform="matrix(-1 0 0 1 2890.68 1199)"/><text fill="#00B0F0" font-family="Calibri,Calibri_MSFontService,sans-serif" font-weight="400" font-size="92" transform="matrix(1 0 0 1 2650.96 1794)">0</text><text fill="#00B050" font-family="Calibri,Calibri_MSFontService,sans-serif" font-weight="400" font-size="92" transform="matrix(1 0 0 1 2738.61 1794)">0</text><text fill="#00B0F0" font-family="Calibri,Calibri_MSFontService,sans-serif" font-weight="400" font-size="92" transform="matrix(1 0 0 1 3801.02 1383)">0</text><text fill="#00B050" font-family="Calibri,Calibri_MSFontService,sans-serif" font-weight="400" font-size="92" transform="matrix(1 0 0 1 3888.67 1383)">0</text><text fill="#00B0F0" font-family="Calibri,Calibri_MSFontService,sans-serif" font-weight="400" font-size="92" transform="matrix(1 0 0 1 2880.97 1383)">1</text><text fill="#00B050" font-family="Calibri,Calibri_MSFontService,sans-serif" font-weight="400" font-size="92" transform="matrix(1 0 0 1 2968.62 1383)">0</text><text fill="#00B0F0" font-family="Calibri,Calibri_MSFontService,sans-serif" font-weight="400" font-size="92" transform="matrix(1 0 0 1 3340 935)">2</text><text fill="#00B050" font-family="Calibri,Calibri_MSFontService,sans-serif" font-weight="400" font-size="92" transform="matrix(1 0 0 1 3427.66 935)">1</text></g></svg>