<svg width="4238" height="1236" xmlns="http://www.w3.org/2000/svg" xmlns:xlink="http://www.w3.org/1999/xlink" xml:space="preserve" overflow="hidden"><g transform="translate(-93 -636)"><rect x="98" y="1655" width="185" height="165" stroke="#FF0000" stroke-width="10.3125" stroke-miterlimit="8" fill="none"/><text font-family="Calibri,Calibri_MSFontService,sans-serif" font-weight="400" font-size="110" transform="matrix(1 0 0 1 162.853 1774)">1</text><rect x="283" y="1655" width="185" height="165" stroke="#FF0000" stroke-width="10.3125" stroke-miterlimit="8" fill="none"/><text font-family="Calibri,Calibri_MSFontService,sans-serif" font-weight="400" font-size="110" transform="matrix(1 0 0 1 347.653 1774)">2</text><rect x="468" y="1655" width="185" height="165" stroke="#FF0000" stroke-width="10.3125" stroke-miterlimit="8" fill="none"/><rect x="707" y="1654" width="184" height="165" stroke="#FF0000" stroke-width="10.3125" stroke-miterlimit="8" fill="none"/><text font-family="Calibri,Calibri_MSFontService,sans-serif" font-weight="400" font-size="110" transform="matrix(1 0 0 1 771.207 1773)">3</text><rect x="891" y="1654" width="185" height="165" stroke="#FF0000" stroke-width="10.3125" stroke-miterlimit="8" fill="none"/><text font-family="Calibri,Calibri_MSFontService,sans-serif" font-weight="400" font-size="110" transform="matrix(1 0 0 1 956.007 1773)">4</text><rect x="1076" y="1654" width="185" height="165" stroke="#FF0000" stroke-width="10.3125" stroke-miterlimit="8" fill="none"/><rect x="1315" y="1655" width="185" height="165" stroke="#FF0000" stroke-width="10.3125" stroke-miterlimit="8" fill="none"/><text font-family="Calibri,Calibri_MSFontService,sans-serif" font-weight="400" font-size="110" transform="matrix(1 0 0 1 1379.56 1774)">5</text><rect x="1500" y="1655" width="185" height="165" stroke="#FF0000" stroke-width="10.3125" stroke-miterlimit="8" fill="none"/><text font-family="Calibri,Calibri_MSFontService,sans-serif" font-weight="400" font-size="110" transform="matrix(1 0 0 1 1564.36 1774)">6</text><rect x="1685" y="1655" width="184" height="165" stroke="#FF0000" stroke-width="10.3125" stroke-miterlimit="8" fill="none"/><rect x="1925" y="1654" width="185" height="165" stroke="#FF0000" stroke-width="10.3125" stroke-miterlimit="8" fill="none"/><text font-family="Calibri,Calibri_MSFontService,sans-serif" font-weight="400" font-size="110" transform="matrix(1 0 0 1 1989.93 1773)">7</text><rect x="2110" y="1654" width="185" height="165" stroke="#FF0000" stroke-width="10.3125" stroke-miterlimit="8" fill="none"/><text font-family="Calibri,Calibri_MSFontService,sans-serif" font-weight="400" font-size="110" transform="matrix(1 0 0 1 2174.73 1773)">8</text><rect x="2295" y="1654" width="185" height="165" stroke="#FF0000" stroke-width="10.3125" stroke-miterlimit="8" fill="none"/><rect x="2533" y="1657" width="184" height="165" stroke="#FF0000" stroke-width="10.3125" stroke-miterlimit="8" fill="none"/><text font-family="Calibri,Calibri_MSFontService,sans-serif" font-weight="400" font-size="110" transform="matrix(1 0 0 1 2597.28 1776)">9</text><rect x="2717" y="1657" width="185" height="165" stroke="#FF0000" stroke-width="10.3125" stroke-miterlimit="8" fill="none"/><text font-family="Calibri,Calibri_MSFontService,sans-serif" font-weight="400" font-size="110" transform="matrix(1 0 0 1 2754.29 1776)">10</text><rect x="2902" y="1657" width="185" height="165" stroke="#FF0000" stroke-width="10.3125" stroke-miterlimit="8" fill="none"/><rect x="3140" y="1657" width="185" height="165" stroke="#FF0000" stroke-width="10.3125" stroke-miterlimit="8" fill="none"/><text font-family="Calibri,Calibri_MSFontService,sans-serif" font-weight="400" font-size="110" transform="matrix(1 0 0 1 3176.84 1777)">11</text><rect x="3325" y="1657" width="185" height="165" stroke="#FF0000" stroke-width="10.3125" stroke-miterlimit="8" fill="none"/><text font-family="Calibri,Calibri_MSFontService,sans-serif" font-weight="400" font-size="110" transform="matrix(1 0 0 1 3361.64 1777)">12</text><rect x="3510" y="1657" width="184" height="165" stroke="#FF0000" stroke-width="10.3125" stroke-miterlimit="8" fill="none"/><rect x="3747" y="1653" width="185" height="165" stroke="#FF0000" stroke-width="10.3125" stroke-miterlimit="8" fill="none"/><text font-family="Calibri,Calibri_MSFontService,sans-serif" font-weight="400" font-size="110" transform="matrix(1 0 0 1 3784.19 1772)">13</text><rect x="3932" y="1653" width="185" height="165" stroke="#FF0000" stroke-width="10.3125" stroke-miterlimit="8" fill="none"/><text font-family="Calibri,Calibri_MSFontService,sans-serif" font-weight="400" font-size="110" transform="matrix(1 0 0 1 3968.99 1772)">14</text><rect x="4117" y="1653" width="185" height="165" stroke="#FF0000" stroke-width="10.3125" stroke-miterlimit="8" fill="none"/><text font-family="Calibri,Calibri_MSFontService,sans-serif" font-weight="400" font-size="110" transform="matrix(1 0 0 1 4153.79 1772)">15</text><path d="M2.11549-4.7023 77.3523 29.1455 73.1213 38.5501-2.11549 4.7023ZM105.566 41.8385 180.803 75.6863 176.572 85.0909 101.335 51.2431ZM209.017 88.3793 284.253 122.227 280.022 131.632 204.786 97.7839ZM312.467 134.92 387.704 168.768 383.473 178.172 308.236 144.325ZM415.918 181.461 491.155 215.309 486.924 224.713 411.687 190.865ZM519.368 228.002 594.605 261.849 590.374 271.254 515.137 237.406ZM622.819 274.542 698.056 308.39 693.825 317.795 618.588 283.947ZM726.27 321.083 801.506 354.931 797.275 364.336 722.039 330.488ZM829.72 367.624 904.957 401.472 900.726 410.876 825.489 377.029ZM918.649 396.324 940.517 423.124 905.956 424.538Z" fill="#0D0D0D" transform="matrix(-1 0 0 1 1923.52 735)"/><path d="M4.03069-3.21566 55.4812 61.2754 47.4199 67.7067-4.03069 3.21566ZM74.7752 85.4595 126.226 149.951 118.164 156.382 66.7138 91.8908ZM145.52 174.135 196.97 238.626 188.909 245.057 137.458 180.566ZM216.264 262.81 267.715 327.301 259.653 333.732 208.203 269.241ZM287.009 351.485 318.1 390.456 310.038 396.887 278.947 357.916ZM322.945 379.994 330.147 413.825 298.761 399.288Z" fill="#0D0D0D" transform="matrix(-1 0 0 1 705.147 1241)"/><path d="M895.029 1239.86 913.219 1320.33 903.16 1322.61 884.971 1242.14ZM920.04 1350.51 938.229 1430.98 928.17 1433.25 909.981 1352.78ZM945.05 1461.16 963.239 1541.62 953.18 1543.9 934.991 1463.43ZM970.06 1571.8 982.752 1627.95 972.693 1630.22 960.001 1574.07ZM991.674 1620.65 983.406 1654.23 961.497 1627.47Z" fill="#0D0D0D"/><path d="M2.07972-4.71823 77.5714 28.5573 73.4119 37.9938-2.07972 4.71823ZM105.881 41.0356 181.372 74.3112 177.213 83.7476 101.721 50.4721ZM209.682 86.7895 285.173 120.065 281.014 129.501 205.522 96.2259ZM313.483 132.543 388.974 165.819 384.815 175.255 309.323 141.98ZM417.284 178.297 492.775 211.573 488.616 221.009 413.124 187.734ZM521.085 224.051 596.576 257.327 592.417 266.763 516.925 233.488ZM624.886 269.805 700.378 303.08 696.218 312.517 620.726 279.241ZM728.687 315.559 804.178 348.834 800.019 358.271 724.527 324.995ZM832.488 361.313 907.98 394.588 903.82 404.025 828.328 370.749ZM915.423 386.599 937.493 413.232 902.945 414.909Z" fill="#0D0D0D" transform="matrix(-1 0 0 1 3140.49 1241)"/><path d="M3.24034-4.01087 67.4143 47.8347 60.9336 55.8564-3.24034 4.01087ZM91.4795 67.2767 155.653 119.122 149.173 127.144 84.9988 75.2985ZM179.719 138.564 243.893 190.41 237.412 198.432 173.238 146.586ZM267.958 209.852 332.132 261.697 325.651 269.719 261.477 217.874ZM356.197 281.139 420.371 332.985 413.89 341.007 349.716 289.161ZM444.436 352.427 498.133 395.809 491.653 403.83 437.955 360.449ZM500.602 384.546 514.947 416.021 481.16 408.611Z" fill="#0D0D0D" transform="matrix(-1 0 0 1 3324.95 1241)"/><path d="M2109.59 730.094 2188.09 755.466 2184.92 765.279 2106.41 739.906ZM2217.52 764.981 2296.03 790.354 2292.85 800.167 2214.35 774.794ZM2325.46 799.869 2403.97 825.242 2400.79 835.054 2322.29 809.682ZM2433.4 834.756 2511.91 860.129 2508.73 869.942 2430.23 844.569ZM2541.34 869.644 2619.84 895.017 2616.67 904.829 2538.17 879.457ZM2649.28 904.532 2727.78 929.904 2724.61 939.717 2646.11 914.344ZM2757.22 939.419 2835.72 964.792 2832.55 974.605 2754.05 949.232ZM2865.16 974.307 2943.66 999.68 2940.49 1009.49 2861.99 984.12ZM2973.1 1009.19 3051.6 1034.57 3048.43 1044.38 2969.93 1019.01ZM3081.04 1044.08 3159.54 1069.45 3156.37 1079.27 3077.87 1053.89ZM3188.98 1078.97 3267.48 1104.34 3264.31 1114.16 3185.81 1088.78ZM3296.92 1113.86 3375.42 1139.23 3372.25 1149.04 3293.75 1123.67ZM3392.43 1133.89 3417.11 1158.12 3382.91 1163.33Z" fill="#0D0D0D"/><path d="M1078.22 1236.98 1142.62 1288.55 1136.17 1296.6 1071.78 1245.02ZM1166.76 1307.89 1231.16 1359.46 1224.71 1367.51 1160.32 1315.94ZM1255.31 1378.8 1319.7 1430.37 1313.25 1438.42 1248.86 1386.85ZM1343.85 1449.71 1408.24 1501.28 1401.79 1509.33 1337.4 1457.76ZM1432.39 1520.62 1496.78 1572.2 1490.33 1580.25 1425.94 1528.67ZM1520.93 1591.54 1575.06 1634.89 1568.62 1642.94 1514.48 1599.59ZM1577.48 1623.62 1591.96 1655.03 1558.15 1647.77Z" fill="#0D0D0D"/><path d="M3698.02 1237.78 3749.62 1302.15 3741.57 1308.6 3689.98 1244.22ZM3768.96 1326.29 3820.56 1390.67 3812.51 1397.12 3760.92 1332.74ZM3839.91 1414.81 3891.5 1479.19 3883.45 1485.64 3831.86 1421.26ZM3910.85 1503.33 3962.44 1567.71 3954.39 1574.16 3902.8 1509.78ZM3981.79 1591.85 4012.05 1629.61 4004 1636.05 3973.74 1598.3ZM4016.87 1619.13 4024.15 1652.95 3992.73 1638.48Z" fill="#0D0D0D"/><path d="M5.03398-1.11621 22.8933 79.4275 12.8253 81.66-5.03398 1.11621ZM29.5906 109.631 47.4499 190.175 37.3819 192.408 19.5226 111.864ZM54.1471 220.379 72.0065 300.923 61.9385 303.155 44.0792 222.612ZM78.7037 331.127 91.8529 390.428 81.785 392.661 68.6358 333.359ZM100.805 383.162 92.4 416.715 70.6008 389.859Z" fill="#0D0D0D" transform="matrix(-1 0 0 1 3509.4 1241)"/><path d="M0.0566632-5.15594 28.2307-4.84631 28.1174 5.46557-0.0566632 5.15594ZM23.1881-15.2148 53.9538 0.592946 22.8482 15.7208Z" fill="#0D0D0D" transform="matrix(1 0 0 -1 653 1736.59)"/><path d="M1261.08 1730.84 1289.25 1731.26 1289.1 1741.57 1260.92 1741.16ZM1284.25 1720.87 1314.96 1736.8 1283.79 1751.81Z" fill="#0D0D0D"/><path d="M0.0737672-5.15572 30.266-4.72374 30.1184 5.58771-0.0737672 5.15572ZM25.2578-15.1089 55.9708 0.80082 24.8152 15.8254Z" fill="#0D0D0D" transform="matrix(1 0 0 -1 1869 1736.8)"/><path d="M2480.27 1730.85 2507.47 1732.28 2506.93 1742.58 2479.73 1741.15ZM2502.87 1721.71 2532.95 1738.79 2501.24 1752.61Z" fill="#0D0D0D"/><path d="M3087.07 1733.84 3114.23 1734.2 3114.1 1744.51 3086.93 1744.16ZM3109.21 1723.82 3139.95 1739.69 3108.81 1754.76Z" fill="#0D0D0D"/><path d="M0.462371-5.13548 27.7315-2.68031 26.8068 7.59065-0.462371 5.13548ZM23.5208-13.4136 52.9465 4.76703 20.7465 17.3992Z" fill="#0D0D0D" transform="matrix(1 0 0 -1 3694 1739.77)"/><rect x="706" y="1158" width="184" height="165" stroke="#0D0D0D" stroke-width="10.3125" stroke-miterlimit="8" fill="none"/><text font-family="Calibri,Calibri_MSFontService,sans-serif" font-weight="400" font-size="110" transform="matrix(1 0 0 1 770.201 1278)">3</text><rect x="890" y="1158" width="185" height="165" stroke="#0D0D0D" stroke-width="10.3125" stroke-miterlimit="8" fill="none"/><text font-family="Calibri,Calibri_MSFontService,sans-serif" font-weight="400" font-size="110" transform="matrix(1 0 0 1 955.001 1278)">5</text><rect x="1075" y="1158" width="185" height="165" stroke="#0D0D0D" stroke-width="10.3125" stroke-miterlimit="8" fill="none"/><rect x="1923" y="653" width="185" height="165" stroke="#10EDF8" stroke-width="10.3125" stroke-miterlimit="8" fill="none"/><text font-family="Calibri,Calibri_MSFontService,sans-serif" font-weight="400" font-size="110" transform="matrix(1 0 0 1 1987.92 772)">7</text><rect x="2108" y="653" width="185" height="165" stroke="#10EDF8" stroke-width="10.3125" stroke-miterlimit="8" fill="none"/><rect x="2293" y="653" width="185" height="165" stroke="#10EDF8" stroke-width="10.3125" stroke-miterlimit="8" fill="none"/><rect x="3140" y="1158" width="185" height="165" stroke="#0D0D0D" stroke-width="10.3125" stroke-miterlimit="8" fill="none"/><text font-family="Calibri,Calibri_MSFontService,sans-serif" font-weight="400" font-size="110" transform="matrix(1 0 0 1 3204.63 1278)">9</text><rect x="3325" y="1158" width="185" height="165" stroke="#0D0D0D" stroke-width="10.3125" stroke-miterlimit="8" fill="none"/><text font-family="Calibri,Calibri_MSFontService,sans-serif" font-weight="400" font-size="110" transform="matrix(1 0 0 1 3361.64 1278)">11</text><rect x="3510" y="1158" width="184" height="165" stroke="#0D0D0D" stroke-width="10.3125" stroke-miterlimit="8" fill="none"/><text font-family="Calibri,Calibri_MSFontService,sans-serif" font-weight="400" font-size="110" transform="matrix(1 0 0 1 3546.44 1278)">13</text></g></svg>