<svg width="2392" height="732" xmlns="http://www.w3.org/2000/svg" xmlns:xlink="http://www.w3.org/1999/xlink" xml:space="preserve" overflow="hidden"><g transform="translate(-1004 -888)"><rect x="1009" y="1405" width="185" height="165" stroke="#FF0000" stroke-width="10.3125" stroke-miterlimit="8" fill="none"/><text font-family="Calibri,Calibri_MSFontService,sans-serif" font-weight="400" font-size="110" transform="matrix(1 0 0 1 1073.87 1524)">1</text><rect x="1194" y="1405" width="185" height="165" stroke="#FF0000" stroke-width="10.3125" stroke-miterlimit="8" fill="none"/><text font-family="Calibri,Calibri_MSFontService,sans-serif" font-weight="400" font-size="110" transform="matrix(1 0 0 1 1258.67 1524)">2</text><rect x="1379" y="1405" width="185" height="165" stroke="#FF0000" stroke-width="10.3125" stroke-miterlimit="8" fill="none"/><rect x="1618" y="1404" width="184" height="165" stroke="#FF0000" stroke-width="10.3125" stroke-miterlimit="8" fill="none"/><text font-family="Calibri,Calibri_MSFontService,sans-serif" font-weight="400" font-size="110" transform="matrix(1 0 0 1 1682.23 1524)">3</text><rect x="1802" y="1404" width="185" height="165" stroke="#FF0000" stroke-width="10.3125" stroke-miterlimit="8" fill="none"/><text font-family="Calibri,Calibri_MSFontService,sans-serif" font-weight="400" font-size="110" transform="matrix(1 0 0 1 1867.03 1524)">4</text><rect x="1987" y="1404" width="185" height="165" stroke="#FF0000" stroke-width="10.3125" stroke-miterlimit="8" fill="none"/><rect x="2226" y="1405" width="185" height="165" stroke="#FF0000" stroke-width="10.3125" stroke-miterlimit="8" fill="none"/><text font-family="Calibri,Calibri_MSFontService,sans-serif" font-weight="400" font-size="110" transform="matrix(1 0 0 1 2290.58 1524)">5</text><rect x="2411" y="1405" width="185" height="165" stroke="#FF0000" stroke-width="10.3125" stroke-miterlimit="8" fill="none"/><text font-family="Calibri,Calibri_MSFontService,sans-serif" font-weight="400" font-size="110" transform="matrix(1 0 0 1 2475.38 1524)">6</text><rect x="2596" y="1405" width="184" height="165" stroke="#FF0000" stroke-width="10.3125" stroke-miterlimit="8" fill="none"/><rect x="2836" y="1404" width="185" height="165" stroke="#FF0000" stroke-width="10.3125" stroke-miterlimit="8" fill="none"/><text font-family="Calibri,Calibri_MSFontService,sans-serif" font-weight="400" font-size="110" transform="matrix(1 0 0 1 2900.95 1524)">7</text><rect x="3021" y="1404" width="185" height="165" stroke="#FF0000" stroke-width="10.3125" stroke-miterlimit="8" fill="none"/><text font-family="Calibri,Calibri_MSFontService,sans-serif" font-weight="400" font-size="110" transform="matrix(1 0 0 1 3085.75 1524)">8</text><rect x="3206" y="1404" width="185" height="165" stroke="#FF0000" stroke-width="10.3125" stroke-miterlimit="8" fill="none"/><text font-family="Calibri,Calibri_MSFontService,sans-serif" font-weight="400" font-size="110" transform="matrix(1 0 0 1 3270.55 1524)">9</text><path d="M2.82945-4.31058 71.7988 40.9606 66.1399 49.5818-2.82945 4.31058ZM97.6623 57.9373 166.632 103.209 160.973 111.83 92.0034 66.5585ZM192.495 120.185 261.464 165.456 255.806 174.078 186.836 128.806ZM287.328 182.433 356.297 227.704 350.638 236.326 281.669 191.054ZM382.161 244.681 451.13 289.952 445.471 298.573 376.502 253.302ZM476.994 306.929 545.963 352.2 540.304 360.821 471.335 315.55ZM571.826 369.177 616.609 398.572 610.95 407.193 566.167 377.798ZM617.957 387.121 635.332 417.03 600.98 412.985Z" fill="#0D0D0D" transform="matrix(-1 0 0 1 1921.33 988)"/><path d="M2478.82 983.683 2547.88 1028.81 2542.24 1037.44 2473.18 992.316ZM2573.78 1045.73 2642.85 1090.86 2637.21 1099.49 2568.14 1054.36ZM2668.75 1107.78 2737.81 1152.91 2732.17 1161.54 2663.11 1116.41ZM2763.71 1169.83 2832.78 1214.95 2827.14 1223.59 2758.07 1178.46ZM2858.67 1231.88 2927.74 1277 2922.1 1285.64 2853.03 1240.51ZM2953.64 1293.92 3022.7 1339.05 3017.06 1347.68 2948 1302.56ZM3048.6 1355.97 3094.59 1386.02 3088.95 1394.65 3042.96 1364.61ZM3095.91 1374.56 3113.35 1404.44 3078.99 1400.46Z" fill="#0D0D0D"/><path d="M4.59607-2.33732 41.9932 71.1998 32.8011 75.8744-4.59607 2.33732ZM56.0172 98.7762 93.4143 172.313 84.2222 176.988 46.825 103.451ZM107.438 199.89 144.835 273.427 135.643 278.101 98.2461 204.564ZM158.859 301.003 196.257 374.54 187.064 379.215 149.667 305.678ZM211.542 381.848 211.778 416.437 183.966 395.872Z" fill="#0D0D0D" transform="matrix(-1 0 0 1 2106.78 988)"/><path d="M2295.6 985.666 2332.94 1059.23 2323.74 1063.9 2286.4 990.334ZM2346.94 1086.82 2384.28 1160.39 2375.08 1165.05 2337.74 1091.49ZM2398.28 1187.97 2435.62 1261.54 2426.43 1266.21 2389.09 1192.64ZM2449.63 1289.13 2486.97 1362.69 2477.77 1367.36 2440.43 1293.79ZM2502.57 1370.65 2502.78 1405.24 2474.98 1384.65Z" fill="#0D0D0D"/><path d="M0.0566632-5.15594 28.2307-4.84631 28.1174 5.46557-0.0566632 5.15594ZM23.1881-15.2148 53.9538 0.592946 22.8482 15.7208Z" fill="#0D0D0D" transform="matrix(1 0 0 -1 1564 1487.59)"/><path d="M2172.08 1481.84 2200.25 1482.26 2200.1 1492.57 2171.92 1492.16ZM2195.25 1471.87 2225.96 1487.8 2194.79 1502.81Z" fill="#0D0D0D"/><path d="M0.0737672-5.15572 30.266-4.72374 30.1184 5.58771-0.0737672 5.15572ZM25.2578-15.1089 55.9708 0.80082 24.8152 15.8254Z" fill="#0D0D0D" transform="matrix(1 0 0 -1 2780 1487.8)"/><rect x="1922" y="905" width="185" height="165" stroke="#10EDF8" stroke-width="10.3125" stroke-miterlimit="8" fill="none"/><text font-family="Calibri,Calibri_MSFontService,sans-serif" font-weight="400" font-size="110" transform="matrix(1 0 0 1 1986.41 1025)">3</text><rect x="2107" y="905" width="184" height="165" stroke="#10EDF8" stroke-width="10.3125" stroke-miterlimit="8" fill="none"/><text font-family="Calibri,Calibri_MSFontService,sans-serif" font-weight="400" font-size="110" transform="matrix(1 0 0 1 2171.21 1025)">5</text><rect x="2291" y="905" width="185" height="165" stroke="#10EDF8" stroke-width="10.3125" stroke-miterlimit="8" fill="none"/><text font-family="Calibri,Calibri_MSFontService,sans-serif" font-weight="400" font-size="110" transform="matrix(1 0 0 1 2356 1025)">7</text></g></svg>