<svg width="3023" height="1232" xmlns="http://www.w3.org/2000/svg" xmlns:xlink="http://www.w3.org/1999/xlink" xml:space="preserve" overflow="hidden"><g transform="translate(-701 -638)"><rect x="706" y="1653" width="184" height="165" stroke="#FF0000" stroke-width="10.3125" stroke-miterlimit="8" fill="none"/><text font-family="Calibri,Calibri_MSFontService,sans-serif" font-weight="400" font-size="110" transform="matrix(1 0 0 1 770.2 1773)">1</text><rect x="890" y="1653" width="185" height="165" stroke="#FF0000" stroke-width="10.3125" stroke-miterlimit="8" fill="none"/><text font-family="Calibri,Calibri_MSFontService,sans-serif" font-weight="400" font-size="110" transform="matrix(1 0 0 1 955 1773)">2</text><rect x="1075" y="1653" width="185" height="165" stroke="#FF0000" stroke-width="10.3125" stroke-miterlimit="8" fill="none"/><rect x="1314" y="1653" width="185" height="165" stroke="#FF0000" stroke-width="10.3125" stroke-miterlimit="8" fill="none"/><text font-family="Calibri,Calibri_MSFontService,sans-serif" font-weight="400" font-size="110" transform="matrix(1 0 0 1 1378.55 1772)">3</text><rect x="1499" y="1653" width="185" height="165" stroke="#FF0000" stroke-width="10.3125" stroke-miterlimit="8" fill="none"/><text font-family="Calibri,Calibri_MSFontService,sans-serif" font-weight="400" font-size="110" transform="matrix(1 0 0 1 1563.35 1772)">4</text><rect x="1684" y="1653" width="184" height="165" stroke="#FF0000" stroke-width="10.3125" stroke-miterlimit="8" fill="none"/><rect x="1922" y="1653" width="185" height="165" stroke="#FF0000" stroke-width="10.3125" stroke-miterlimit="8" fill="none"/><text font-family="Calibri,Calibri_MSFontService,sans-serif" font-weight="400" font-size="110" transform="matrix(1 0 0 1 1986.91 1773)">5</text><rect x="2107" y="1653" width="185" height="165" stroke="#FF0000" stroke-width="10.3125" stroke-miterlimit="8" fill="none"/><text font-family="Calibri,Calibri_MSFontService,sans-serif" font-weight="400" font-size="110" transform="matrix(1 0 0 1 2171.71 1773)">6</text><rect x="2292" y="1653" width="185" height="165" stroke="#FF0000" stroke-width="10.3125" stroke-miterlimit="8" fill="none"/><rect x="2533" y="1653" width="184" height="165" stroke="#FF0000" stroke-width="10.3125" stroke-miterlimit="8" fill="none"/><text font-family="Calibri,Calibri_MSFontService,sans-serif" font-weight="400" font-size="110" transform="matrix(1 0 0 1 2597.28 1772)">7</text><rect x="2717" y="1653" width="185" height="165" stroke="#FF0000" stroke-width="10.3125" stroke-miterlimit="8" fill="none"/><text font-family="Calibri,Calibri_MSFontService,sans-serif" font-weight="400" font-size="110" transform="matrix(1 0 0 1 2782.08 1772)">8</text><rect x="2902" y="1653" width="185" height="165" stroke="#FF0000" stroke-width="10.3125" stroke-miterlimit="8" fill="none"/><rect x="3140" y="1655" width="185" height="165" stroke="#FF0000" stroke-width="10.3125" stroke-miterlimit="8" fill="none"/><text font-family="Calibri,Calibri_MSFontService,sans-serif" font-weight="400" font-size="110" transform="matrix(1 0 0 1 3204.63 1775)">9</text><rect x="3325" y="1655" width="185" height="165" stroke="#FF0000" stroke-width="10.3125" stroke-miterlimit="8" fill="none"/><text font-family="Calibri,Calibri_MSFontService,sans-serif" font-weight="400" font-size="110" transform="matrix(1 0 0 1 3361.64 1775)">10</text><rect x="3510" y="1655" width="184" height="165" stroke="#FF0000" stroke-width="10.3125" stroke-miterlimit="8" fill="none"/><text font-family="Calibri,Calibri_MSFontService,sans-serif" font-weight="400" font-size="110" transform="matrix(1 0 0 1 3546.44 1775)">11</text><path d="M3.24967-4.00332 67.3028 47.9914 60.8035 55.998-3.24967 4.00332ZM91.3227 67.4894 155.376 119.484 148.877 127.491 84.8234 75.496ZM179.396 138.982 243.449 190.977 236.95 198.983 172.896 146.989ZM267.469 210.475 331.522 262.469 325.023 270.476 260.969 218.481ZM355.542 281.967 419.595 333.962 413.096 341.969 349.043 289.974ZM443.615 353.46 500.196 399.39 493.697 407.396 437.116 361.467ZM502.692 388.133 516.963 419.641 483.194 412.153Z" fill="#0D0D0D" transform="matrix(-1 0 0 1 2106.96 737)"/><path d="M4.03069-3.21566 55.4812 61.2754 47.4199 67.7067-4.03069 3.21566ZM74.7752 85.4595 126.226 149.951 118.164 156.382 66.7138 91.8908ZM145.52 174.135 196.97 238.626 188.909 245.057 137.458 180.566ZM216.264 262.81 267.715 327.301 259.653 333.732 208.203 269.241ZM287.009 351.485 318.1 390.456 310.038 396.887 278.947 357.916ZM322.945 379.994 330.147 413.825 298.761 399.288Z" fill="#0D0D0D" transform="matrix(-1 0 0 1 1313.15 1239)"/><path d="M1503.03 1237.86 1521.22 1318.33 1511.16 1320.61 1492.97 1240.14ZM1528.04 1348.51 1546.23 1428.98 1536.17 1431.25 1517.98 1350.78ZM1553.05 1459.16 1571.24 1539.62 1561.18 1541.9 1542.99 1461.43ZM1578.06 1569.8 1590.75 1625.95 1580.69 1628.22 1568 1572.07ZM1599.67 1618.65 1591.41 1652.23 1569.5 1625.47Z" fill="#0D0D0D"/><path d="M5.11444-0.655302 15.5993 81.1757 5.37039 82.4863-5.11444 0.655302ZM19.5311 111.862 30.0159 193.693 19.787 195.004 9.3022 113.173ZM33.9477 224.38 44.4325 306.211 34.2037 307.522 23.7188 225.691ZM48.3643 336.898 54.7845 387.005 44.5556 388.316 38.1355 338.208ZM64.358 380.58 52.9465 413.232 33.6714 384.512Z" fill="#0D0D0D" transform="matrix(-1 0 0 1 2862.95 1239)"/><path d="M3051.85 1235.58 3106.65 1297.25 3098.94 1304.1 3044.15 1242.42ZM3127.2 1320.38 3181.99 1382.06 3174.28 1388.9 3119.49 1327.23ZM3202.54 1405.18 3257.33 1466.86 3249.62 1473.71 3194.83 1412.03ZM3277.88 1489.99 3332.67 1551.66 3324.96 1558.51 3270.17 1496.84ZM3353.22 1574.79 3404.33 1632.32 3396.62 1639.17 3345.51 1581.64ZM3408.62 1621.62 3417.6 1655.02 3385.49 1642.17Z" fill="#0D0D0D"/><path d="M2294.29 732.379 2368.23 768.965 2363.66 778.208 2289.71 741.621ZM2395.96 782.685 2469.9 819.272 2465.33 828.515 2391.39 791.928ZM2497.63 832.992 2571.58 869.579 2567 878.822 2493.06 842.235ZM2599.3 883.299 2673.25 919.885 2668.67 929.128 2594.73 892.542ZM2700.98 933.605 2774.92 970.192 2770.35 979.435 2696.4 942.848ZM2802.65 983.912 2876.59 1020.5 2872.02 1029.74 2798.08 993.155ZM2904.32 1034.22 2978.27 1070.81 2973.69 1080.05 2899.75 1043.46ZM3005.99 1084.53 3079.94 1121.11 3075.36 1130.35 3001.42 1093.77ZM3107.67 1134.83 3119.3 1140.59 3114.72 1149.83 3103.09 1144.07ZM3119.25 1129.06 3140.12 1156.64 3105.53 1156.79Z" fill="#0D0D0D"/><path d="M1686.22 1234.98 1750.62 1286.55 1744.17 1294.6 1679.78 1243.02ZM1774.76 1305.89 1839.16 1357.46 1832.71 1365.51 1768.32 1313.94ZM1863.31 1376.8 1927.7 1428.37 1921.25 1436.42 1856.86 1384.85ZM1951.85 1447.71 2016.24 1499.28 2009.79 1507.33 1945.4 1455.76ZM2040.39 1518.62 2104.78 1570.2 2098.33 1578.25 2033.94 1526.67ZM2128.93 1589.54 2183.06 1632.89 2176.62 1640.94 2122.48 1597.59ZM2185.49 1621.62 2199.96 1653.03 2166.15 1645.77Z" fill="#0D0D0D"/><path d="M0.0566632-5.15594 28.2307-4.84631 28.1174 5.46557-0.0566632 5.15594ZM23.1881-15.2148 53.9538 0.592946 22.8482 15.7208Z" fill="#0D0D0D" transform="matrix(1 0 0 -1 1260 1735.59)"/><path d="M1868.08 1729.84 1896.25 1730.26 1896.1 1740.57 1867.92 1740.16ZM1891.25 1719.87 1921.96 1735.8 1890.79 1750.81Z" fill="#0D0D0D"/><path d="M0.0737672-5.15572 30.266-4.72374 30.1184 5.58771-0.0737672 5.15572ZM25.2578-15.1089 55.9708 0.80082 24.8152 15.8254Z" fill="#0D0D0D" transform="matrix(1 0 0 -1 2477 1735.8)"/><path d="M3087.27 1729.85 3114.47 1731.28 3113.93 1741.58 3086.73 1740.15ZM3109.86 1720.71 3139.95 1737.79 3108.24 1751.61Z" fill="#0D0D0D"/><rect x="1313" y="1157" width="185" height="165" stroke="#0D0D0D" stroke-width="10.3125" stroke-miterlimit="8" fill="none"/><text font-family="Calibri,Calibri_MSFontService,sans-serif" font-weight="400" font-size="110" transform="matrix(1 0 0 1 1377.55 1276)">3</text><rect x="1498" y="1157" width="185" height="165" stroke="#0D0D0D" stroke-width="10.3125" stroke-miterlimit="8" fill="none"/><text font-family="Calibri,Calibri_MSFontService,sans-serif" font-weight="400" font-size="110" transform="matrix(1 0 0 1 1562.35 1276)">5</text><rect x="1683" y="1157" width="184" height="165" stroke="#0D0D0D" stroke-width="10.3125" stroke-miterlimit="8" fill="none"/><rect x="2863" y="1157" width="185" height="165" stroke="#0D0D0D" stroke-width="10.3125" stroke-miterlimit="8" fill="none"/><text font-family="Calibri,Calibri_MSFontService,sans-serif" font-weight="400" font-size="110" transform="matrix(1 0 0 1 2927.43 1276)">9</text><rect x="3048" y="1157" width="184" height="165" stroke="#0D0D0D" stroke-width="10.3125" stroke-miterlimit="8" fill="none"/><rect x="3232" y="1157" width="185" height="165" stroke="#0D0D0D" stroke-width="10.3125" stroke-miterlimit="8" fill="none"/><rect x="2107" y="655" width="185" height="165" stroke="#10EDF8" stroke-width="10.3125" stroke-miterlimit="8" fill="none"/><text font-family="Calibri,Calibri_MSFontService,sans-serif" font-weight="400" font-size="110" transform="matrix(1 0 0 1 2171.71 774)">7</text><rect x="2292" y="655" width="185" height="165" stroke="#10EDF8" stroke-width="10.3125" stroke-miterlimit="8" fill="none"/><rect x="2477" y="655" width="184" height="165" stroke="#10EDF8" stroke-width="10.3125" stroke-miterlimit="8" fill="none"/></g></svg>