<svg width="4238" height="1236" xmlns="http://www.w3.org/2000/svg" xmlns:xlink="http://www.w3.org/1999/xlink" xml:space="preserve" overflow="hidden"><g transform="translate(-93 -636)"><rect x="98" y="1655" width="185" height="165" stroke="#FF0000" stroke-width="10.3125" stroke-miterlimit="8" fill="none"/><text font-family="Calibri,Calibri_MSFontService,sans-serif" font-weight="400" font-size="110" transform="matrix(1 0 0 1 162.853 1774)">1</text><rect x="283" y="1655" width="185" height="165" stroke="#FF0000" stroke-width="10.3125" stroke-miterlimit="8" fill="none"/><rect x="468" y="1655" width="185" height="165" stroke="#FF0000" stroke-width="10.3125" stroke-miterlimit="8" fill="none"/><rect x="707" y="1654" width="184" height="165" stroke="#FF0000" stroke-width="10.3125" stroke-miterlimit="8" fill="none"/><text font-family="Calibri,Calibri_MSFontService,sans-serif" font-weight="400" font-size="110" transform="matrix(1 0 0 1 771.207 1773)">3</text><rect x="891" y="1654" width="185" height="165" stroke="#FF0000" stroke-width="10.3125" stroke-miterlimit="8" fill="none"/><rect x="1076" y="1654" width="185" height="165" stroke="#FF0000" stroke-width="10.3125" stroke-miterlimit="8" fill="none"/><rect x="1315" y="1655" width="185" height="165" stroke="#FF0000" stroke-width="10.3125" stroke-miterlimit="8" fill="none"/><text font-family="Calibri,Calibri_MSFontService,sans-serif" font-weight="400" font-size="110" transform="matrix(1 0 0 1 1379.56 1774)">5</text><rect x="1500" y="1655" width="185" height="165" stroke="#FF0000" stroke-width="10.3125" stroke-miterlimit="8" fill="none"/><rect x="1685" y="1655" width="184" height="165" stroke="#FF0000" stroke-width="10.3125" stroke-miterlimit="8" fill="none"/><rect x="1923" y="1657" width="185" height="165" stroke="#FF0000" stroke-width="10.3125" stroke-miterlimit="8" fill="none"/><text font-family="Calibri,Calibri_MSFontService,sans-serif" font-weight="400" font-size="110" transform="matrix(1 0 0 1 1987.92 1776)">7</text><rect x="2108" y="1657" width="185" height="165" stroke="#FF0000" stroke-width="10.3125" stroke-miterlimit="8" fill="none"/><rect x="2293" y="1657" width="185" height="165" stroke="#FF0000" stroke-width="10.3125" stroke-miterlimit="8" fill="none"/><rect x="2533" y="1657" width="184" height="165" stroke="#FF0000" stroke-width="10.3125" stroke-miterlimit="8" fill="none"/><text font-family="Calibri,Calibri_MSFontService,sans-serif" font-weight="400" font-size="110" transform="matrix(1 0 0 1 2597.28 1776)">9</text><rect x="2717" y="1657" width="185" height="165" stroke="#FF0000" stroke-width="10.3125" stroke-miterlimit="8" fill="none"/><rect x="2902" y="1657" width="185" height="165" stroke="#FF0000" stroke-width="10.3125" stroke-miterlimit="8" fill="none"/><rect x="3140" y="1657" width="185" height="165" stroke="#FF0000" stroke-width="10.3125" stroke-miterlimit="8" fill="none"/><text font-family="Calibri,Calibri_MSFontService,sans-serif" font-weight="400" font-size="110" transform="matrix(1 0 0 1 3176.84 1777)">11</text><rect x="3325" y="1657" width="185" height="165" stroke="#FF0000" stroke-width="10.3125" stroke-miterlimit="8" fill="none"/><rect x="3510" y="1657" width="184" height="165" stroke="#FF0000" stroke-width="10.3125" stroke-miterlimit="8" fill="none"/><rect x="3747" y="1654" width="185" height="165" stroke="#FF0000" stroke-width="10.3125" stroke-miterlimit="8" fill="none"/><text font-family="Calibri,Calibri_MSFontService,sans-serif" font-weight="400" font-size="110" transform="matrix(1 0 0 1 3784.19 1773)">13</text><rect x="3932" y="1654" width="185" height="165" stroke="#FF0000" stroke-width="10.3125" stroke-miterlimit="8" fill="none"/><text font-family="Calibri,Calibri_MSFontService,sans-serif" font-weight="400" font-size="110" transform="matrix(1 0 0 1 3968.99 1773)">14</text><rect x="4117" y="1654" width="185" height="165" stroke="#FF0000" stroke-width="10.3125" stroke-miterlimit="8" fill="none"/><text font-family="Calibri,Calibri_MSFontService,sans-serif" font-weight="400" font-size="110" transform="matrix(1 0 0 1 4153.79 1773)">15</text><path d="M1.86823-4.8059 78.7626 25.0857 75.0261 34.6975-1.86823 4.8059ZM107.598 36.2951 184.492 66.1867 180.756 75.7985 103.862 45.9069ZM213.328 77.396 290.222 107.288 286.486 116.899 209.591 87.0078ZM319.057 118.497 395.952 148.389 392.215 158 315.321 128.109ZM424.787 159.598 501.681 189.49 497.945 199.101 421.051 169.21ZM530.517 200.699 607.411 230.591 603.675 240.202 526.78 210.311ZM636.247 241.8 713.141 271.692 709.405 281.303 632.51 251.412ZM741.976 282.901 818.871 312.793 815.134 322.404 738.24 292.513ZM847.706 324.002 924.6 353.894 920.864 363.505 843.97 333.614ZM953.436 365.103 1030.33 394.994 1026.59 404.606 949.699 374.715ZM1059.17 406.204 1063.7 407.968 1059.97 417.58 1055.43 415.816ZM1062.63 396.488 1085.86 422.115 1051.42 425.323Z" fill="#0D0D0D" transform="matrix(-1 0 0 1 1922.86 735)"/><path d="M4.71003-2.09822 38.2816 73.2623 28.8615 77.4587-4.71003 2.09822ZM50.8709 101.522 84.4424 176.883 75.0223 181.079 41.4508 105.719ZM97.0317 205.143 130.603 280.504 121.183 284.7 87.6117 209.34ZM143.193 308.764 176.764 384.124 167.344 388.321 133.773 312.96ZM186.341 380.279 184.8 414.834 158.081 392.869Z" fill="#0D0D0D" transform="matrix(-1 0 0 1 559.8 1240)"/><path d="M749.467 1237.43 790.664 1308.9 781.73 1314.05 740.533 1242.57ZM806.113 1335.71 847.31 1407.18 838.376 1412.33 797.179 1340.86ZM862.759 1433.99 903.956 1505.47 895.022 1510.62 853.825 1439.14ZM919.405 1532.27 960.602 1603.75 951.668 1608.9 910.471 1537.42ZM981.707 1619.71 983.754 1654.24 954.903 1635.16Z" fill="#0D0D0D"/><path d="M4.67739-2.17002 39.3976 72.6682 30.0429 77.0082-4.67739 2.17002ZM52.4177 100.732 87.138 175.571 77.7832 179.911 43.063 105.073ZM100.158 203.635 134.878 278.473 125.524 282.813 90.8033 207.975ZM147.898 306.537 182.619 381.376 173.264 385.716 138.544 310.878ZM193.566 380.468 192.554 415.042 165.502 393.488Z" fill="#0D0D0D" transform="matrix(-1 0 0 1 1784.55 1240)"/><path d="M1974.51 1237.5 2014.49 1309.67 2005.46 1314.67 1965.49 1242.5ZM2029.48 1336.73 2069.45 1408.9 2060.43 1413.9 2020.46 1341.73ZM2084.44 1435.96 2124.42 1508.13 2115.4 1513.13 2075.42 1440.96ZM2139.41 1535.19 2179.38 1607.36 2170.36 1612.36 2130.39 1540.19ZM2199.54 1622.47 2201 1657.03 2172.48 1637.46Z" fill="#0D0D0D"/><path d="M5.12564-0.560996 14.1016 81.4493 3.8503 82.5713-5.12564 0.560996ZM17.4676 112.203 26.4435 194.213 16.1922 195.335 7.21627 113.325ZM29.8095 224.967 38.7854 306.977 28.5341 308.099 19.5582 226.089ZM42.1514 337.731 48.5206 395.925 38.2694 397.047 31.9001 338.853ZM58.2109 389.678 46.2 422.115 27.4571 393.044Z" fill="#0D0D0D" transform="matrix(-1 0 0 1 2108.2 735)"/><path d="M2294.8 730.169 2372.1 759.014 2368.49 768.675 2291.2 739.831ZM2401.08 769.83 2478.37 798.675 2474.77 808.336 2397.48 779.492ZM2507.36 809.491 2584.65 838.336 2581.05 847.997 2503.75 819.153ZM2613.64 849.152 2690.93 877.997 2687.33 887.659 2610.03 858.814ZM2719.92 888.813 2797.21 917.658 2793.6 927.32 2716.31 898.475ZM2826.19 928.475 2903.49 957.319 2899.88 966.981 2822.59 938.136ZM2932.47 968.136 3009.77 996.98 3006.16 1006.64 2928.87 977.797ZM3038.75 1007.8 3116.04 1036.64 3112.44 1046.3 3035.15 1017.46ZM3145.03 1047.46 3222.32 1076.3 3218.72 1085.96 3141.42 1057.12ZM3251.31 1087.12 3328.6 1115.96 3324.99 1125.63 3247.7 1096.78ZM3357.59 1126.78 3394.95 1140.73 3391.35 1150.39 3353.98 1136.44ZM3393.73 1129.26 3417.31 1154.57 3382.92 1158.25Z" fill="#0D0D0D"/><path d="M4.05219-3.18852 55.0686 61.6465 46.9642 68.0235-4.05219 3.18852ZM74.1997 85.9596 125.216 150.795 117.112 157.172 66.0953 92.3366ZM144.347 175.108 195.364 239.943 187.259 246.32 136.243 181.485ZM214.495 264.256 265.511 329.091 257.407 335.468 206.39 270.633ZM284.642 353.404 318.255 396.122 310.151 402.499 276.538 359.781ZM323.172 385.693 330.147 419.572 298.859 404.824Z" fill="#0D0D0D" transform="matrix(-1 0 0 1 3140.15 1237)"/><path d="M3513.24 1232.99 3577.37 1284.9 3570.88 1292.91 3506.76 1241.01ZM3601.42 1304.36 3665.55 1356.26 3659.06 1364.28 3594.93 1312.37ZM3689.59 1375.73 3753.72 1427.63 3747.23 1435.64 3683.11 1383.74ZM3777.77 1447.09 3841.9 1499 3835.41 1507.01 3771.28 1455.11ZM3865.94 1518.46 3930.07 1570.36 3923.58 1578.38 3859.46 1526.47ZM3954.12 1589.83 4008.15 1633.56 4001.66 1641.57 3947.63 1597.84ZM4010.63 1622.3 4024.95 1653.78 3991.17 1646.34Z" fill="#0D0D0D"/><path d="M3330.04 1235.89 3347.75 1316.47 3337.68 1318.68 3319.96 1238.11ZM3354.39 1346.68 3372.11 1427.26 3362.04 1429.47 3344.32 1348.9ZM3378.75 1457.48 3396.47 1538.05 3386.4 1540.27 3368.68 1459.69ZM3403.11 1568.27 3416.9 1630.98 3406.83 1633.19 3393.04 1570.48ZM3425.86 1623.73 3417.4 1657.27 3395.65 1630.37Z" fill="#0D0D0D"/><rect x="1923" y="653" width="185" height="165" stroke="#10EDF8" stroke-width="10.3125" stroke-miterlimit="8" fill="none"/><text font-family="Calibri,Calibri_MSFontService,sans-serif" font-weight="400" font-size="110" transform="matrix(1 0 0 1 1987.92 772)">4</text><rect x="2108" y="653" width="185" height="165" stroke="#10EDF8" stroke-width="10.3125" stroke-miterlimit="8" fill="none"/><text font-family="Calibri,Calibri_MSFontService,sans-serif" font-weight="400" font-size="110" transform="matrix(1 0 0 1 2172.72 772)">8</text><rect x="2293" y="653" width="185" height="165" stroke="#10EDF8" stroke-width="10.3125" stroke-miterlimit="8" fill="none"/><rect x="1785" y="1157" width="185" height="165" stroke="#0D0D0D" stroke-width="10.3125" stroke-miterlimit="8" fill="none"/><text font-family="Calibri,Calibri_MSFontService,sans-serif" font-weight="400" font-size="110" transform="matrix(1 0 0 1 1849.32 1277)">6</text><rect x="1970" y="1157" width="184" height="165" stroke="#0D0D0D" stroke-width="10.3125" stroke-miterlimit="8" fill="none"/><rect x="2154" y="1157" width="185" height="165" stroke="#0D0D0D" stroke-width="10.3125" stroke-miterlimit="8" fill="none"/><rect x="560" y="1157" width="185" height="165" stroke="#0D0D0D" stroke-width="10.3125" stroke-miterlimit="8" fill="none"/><text font-family="Calibri,Calibri_MSFontService,sans-serif" font-weight="400" font-size="110" transform="matrix(1 0 0 1 624.853 1277)">2</text><rect x="745" y="1157" width="185" height="165" stroke="#0D0D0D" stroke-width="10.3125" stroke-miterlimit="8" fill="none"/><rect x="930" y="1157" width="185" height="165" stroke="#0D0D0D" stroke-width="10.3125" stroke-miterlimit="8" fill="none"/><rect x="3140" y="1155" width="185" height="165" stroke="#0D0D0D" stroke-width="10.3125" stroke-miterlimit="8" fill="none"/><text font-family="Calibri,Calibri_MSFontService,sans-serif" font-weight="400" font-size="110" transform="matrix(1 0 0 1 3176.84 1274)">10</text><rect x="3325" y="1155" width="185" height="165" stroke="#0D0D0D" stroke-width="10.3125" stroke-miterlimit="8" fill="none"/><text font-family="Calibri,Calibri_MSFontService,sans-serif" font-weight="400" font-size="110" transform="matrix(1 0 0 1 3361.64 1274)">12</text><rect x="3510" y="1155" width="184" height="165" stroke="#0D0D0D" stroke-width="10.3125" stroke-miterlimit="8" fill="none"/></g></svg>