<svg width="1625" height="1257" xmlns="http://www.w3.org/2000/svg" xmlns:xlink="http://www.w3.org/1999/xlink" xml:space="preserve" overflow="hidden"><g transform="translate(-488 -620)"><path d="M1909 1565.5C1909 1519.94 1945.94 1483 1991.5 1483 2037.06 1483 2074 1519.94 2074 1565.5 2074 1611.06 2037.06 1648 1991.5 1648 1945.94 1648 1909 1611.06 1909 1565.5Z" stroke="#FF0000" stroke-width="10.3125" stroke-miterlimit="8" fill="none" fill-rule="evenodd"/><text font-family="Calibri,Calibri_MSFontService,sans-serif" font-weight="400" font-size="110" transform="matrix(1 0 0 1 1964.08 1602)">7</text><path d="M1679 1143.5C1679 1097.94 1715.94 1061 1761.5 1061 1807.06 1061 1844 1097.94 1844 1143.5 1844 1189.06 1807.06 1226 1761.5 1226 1715.94 1226 1679 1189.06 1679 1143.5Z" stroke="#0D0D0D" stroke-width="10.3125" stroke-miterlimit="8" fill="none" fill-rule="evenodd"/><text font-family="Calibri,Calibri_MSFontService,sans-serif" font-weight="400" font-size="110" transform="matrix(1 0 0 1 1734.07 1180)">6</text><path d="M989 1566.5C989 1520.94 1025.94 1484 1071.5 1484 1117.06 1484 1154 1520.94 1154 1566.5 1154 1612.06 1117.06 1649 1071.5 1649 1025.94 1649 989 1612.06 989 1566.5Z" stroke="#FF0000" stroke-width="10.3125" stroke-miterlimit="8" fill="none" fill-rule="evenodd"/><text font-family="Calibri,Calibri_MSFontService,sans-serif" font-weight="400" font-size="110" transform="matrix(1 0 0 1 1044.03 1603)">3</text><path d="M759 1143.5C759 1097.94 795.937 1061 841.5 1061 887.063 1061 924 1097.94 924 1143.5 924 1189.06 887.063 1226 841.5 1226 795.937 1226 759 1189.06 759 1143.5Z" stroke="#0D0D0D" stroke-width="10.3125" stroke-miterlimit="8" fill="none" fill-rule="evenodd"/><text font-family="Calibri,Calibri_MSFontService,sans-serif" font-weight="400" font-size="110" transform="matrix(1 0 0 1 814.017 1180)">2</text><path d="M529 1566.5C529 1520.94 565.937 1484 611.5 1484 657.064 1484 694 1520.94 694 1566.5 694 1612.06 657.064 1649 611.5 1649 565.937 1649 529 1612.06 529 1566.5Z" stroke="#FF0000" stroke-width="10.3125" stroke-miterlimit="8" fill="none" fill-rule="evenodd"/><text font-family="Calibri,Calibri_MSFontService,sans-serif" font-weight="400" font-size="110" transform="matrix(1 0 0 1 584.004 1603)">1</text><path d="M1218 719.5C1218 673.936 1254.94 637 1300.5 637 1346.06 637 1383 673.936 1383 719.5 1383 765.063 1346.06 802 1300.5 802 1254.94 802 1218 765.063 1218 719.5Z" stroke="#10EDF8" stroke-width="10.3125" stroke-miterlimit="8" fill="none" fill-rule="evenodd"/><text font-family="Calibri,Calibri_MSFontService,sans-serif" font-weight="400" font-size="110" transform="matrix(1 0 0 1 1273.05 757)">4</text><path d="M1449 1565.5C1449 1519.94 1485.94 1483 1531.5 1483 1577.06 1483 1614 1519.94 1614 1565.5 1614 1611.06 1577.06 1648 1531.5 1648 1485.94 1648 1449 1611.06 1449 1565.5Z" stroke="#FF0000" stroke-width="10.3125" stroke-miterlimit="8" fill="none" fill-rule="evenodd"/><text font-family="Calibri,Calibri_MSFontService,sans-serif" font-weight="400" font-size="110" transform="matrix(1 0 0 1 1504.05 1602)">5</text><path d="M3.44066-3.84041 326.599 285.68 319.718 293.361-3.44066 3.84041ZM329.64 274.559 342.36 306.724 308.996 297.601Z" transform="matrix(-1 0 0 1 1242.36 778)"/><path d="M1362.43 774.15 1687.52 1063.72 1680.66 1071.43 1355.57 781.85ZM1690.53 1052.6 1703.34 1084.72 1669.95 1075.7Z"/><path d="M904.405 1198.32 1062.68 1458.37 1053.87 1463.73 895.595 1203.68ZM1068.81 1448.61 1071.68 1483.08 1042.38 1464.69Z"/><path d="M4.40462-2.68072 162.677 257.372 153.868 262.733-4.40462 2.68072ZM168.805 247.606 171.676 282.076 142.378 263.69Z" transform="matrix(-1 0 0 1 783.676 1201)"/><path d="M4.40047-2.68752 162.639 256.406 153.838 261.782-4.40047 2.68752ZM168.752 246.631 171.676 281.097 142.349 262.756Z" transform="matrix(-1 0 0 1 1703.68 1201)"/><path d="M1824.4 1198.31 1982.64 1457.41 1973.84 1462.78 1815.6 1203.69ZM1988.75 1447.63 1991.68 1482.1 1962.35 1463.76Z"/><text fill="#00B0F0" font-family="Calibri,Calibri_MSFontService,sans-serif" font-weight="400" font-size="92" transform="matrix(1 0 0 1 543.783 1796)">0</text><text fill="#00B050" font-family="Calibri,Calibri_MSFontService,sans-serif" font-weight="400" font-size="92" transform="matrix(1 0 0 1 631.439 1796)">0</text><text fill="#00B0F0" font-family="Calibri,Calibri_MSFontService,sans-serif" font-weight="400" font-size="92" transform="matrix(1 0 0 1 1003.31 1796)">0</text><text fill="#00B050" font-family="Calibri,Calibri_MSFontService,sans-serif" font-weight="400" font-size="92" transform="matrix(1 0 0 1 1090.97 1796)">0</text><text fill="#00B0F0" font-family="Calibri,Calibri_MSFontService,sans-serif" font-weight="400" font-size="92" transform="matrix(1 0 0 1 1463.34 1798)">0</text><text fill="#00B050" font-family="Calibri,Calibri_MSFontService,sans-serif" font-weight="400" font-size="92" transform="matrix(1 0 0 1 1550.99 1798)">0</text><text fill="#00B0F0" font-family="Calibri,Calibri_MSFontService,sans-serif" font-weight="400" font-size="92" transform="matrix(1 0 0 1 1923.86 1798)">0</text><text fill="#00B050" font-family="Calibri,Calibri_MSFontService,sans-serif" font-weight="400" font-size="92" transform="matrix(1 0 0 1 2011.51 1798)">0</text><text fill="#00B0F0" font-family="Calibri,Calibri_MSFontService,sans-serif" font-weight="400" font-size="92" transform="matrix(1 0 0 1 1693.84 1383)">1</text><text fill="#00B050" font-family="Calibri,Calibri_MSFontService,sans-serif" font-weight="400" font-size="92" transform="matrix(1 0 0 1 1781.5 1383)">1</text><text fill="#00B0F0" font-family="Calibri,Calibri_MSFontService,sans-serif" font-weight="400" font-size="92" transform="matrix(1 0 0 1 774.748 1383)">1</text><text fill="#00B050" font-family="Calibri,Calibri_MSFontService,sans-serif" font-weight="400" font-size="92" transform="matrix(1 0 0 1 862.404 1383)">1</text><text fill="#00B0F0" font-family="Calibri,Calibri_MSFontService,sans-serif" font-weight="400" font-size="92" transform="matrix(1 0 0 1 1233.36 932)">2</text><text fill="#00B050" font-family="Calibri,Calibri_MSFontService,sans-serif" font-weight="400" font-size="92" transform="matrix(1 0 0 1 1321.01 932)">2</text></g></svg>