<svg width="1164" height="1685" xmlns="http://www.w3.org/2000/svg" xmlns:xlink="http://www.w3.org/1999/xlink" xml:space="preserve" overflow="hidden"><g transform="translate(-734 -445)"><path d="M1694 966.5C1694 920.937 1730.94 884 1776.5 884 1822.06 884 1859 920.937 1859 966.5 1859 1012.06 1822.06 1049 1776.5 1049 1730.94 1049 1694 1012.06 1694 966.5Z" stroke="#FF0000" stroke-width="10.3125" stroke-miterlimit="8" fill="none" fill-rule="evenodd"/><text font-family="Calibri,Calibri_MSFontService,sans-serif" font-weight="400" font-size="110" transform="matrix(1 0 0 1 1748.54 1003)">5</text><path d="M1234 966.5C1234 920.937 1270.94 884 1316.5 884 1362.06 884 1399 920.937 1399 966.5 1399 1012.06 1362.06 1049 1316.5 1049 1270.94 1049 1234 1012.06 1234 966.5Z" stroke="#0D0D0D" stroke-width="10.3125" stroke-miterlimit="8" fill="none" fill-rule="evenodd"/><text font-family="Calibri,Calibri_MSFontService,sans-serif" font-weight="400" font-size="110" transform="matrix(1 0 0 1 1288.52 1003)">3</text><path d="M1005 1389.5C1005 1343.94 1041.94 1307 1087.5 1307 1133.06 1307 1170 1343.94 1170 1389.5 1170 1435.06 1133.06 1472 1087.5 1472 1041.94 1472 1005 1435.06 1005 1389.5Z" stroke="#0D0D0D" stroke-width="10.3125" stroke-miterlimit="8" fill="none" fill-rule="evenodd"/><text font-family="Calibri,Calibri_MSFontService,sans-serif" font-weight="400" font-size="110" transform="matrix(1 0 0 1 1059.49 1426)">2</text><path d="M1452 544.5C1452 498.937 1488.94 462 1534.5 462 1580.06 462 1617 498.937 1617 544.5 1617 590.063 1580.06 627 1534.5 627 1488.94 627 1452 590.063 1452 544.5Z" stroke="#10EDF8" stroke-width="10.3125" stroke-miterlimit="8" fill="none" fill-rule="evenodd"/><text font-family="Calibri,Calibri_MSFontService,sans-serif" font-weight="400" font-size="110" transform="matrix(1 0 0 1 1506.94 581)">4</text><path d="M4.48109-2.55084 151.817 256.275 142.854 261.377-4.48109 2.55084ZM158.228 246.692 160.09 281.231 131.341 261.997Z" transform="matrix(-1 0 0 1 1476.09 603)"/><path d="M4.40462-2.68072 162.677 257.372 153.868 262.733-4.40462 2.68072ZM168.805 247.606 171.676 282.076 142.378 263.69Z" transform="matrix(-1 0 0 1 1258.68 1025)"/><text fill="#00B0F0" font-family="Calibri,Calibri_MSFontService,sans-serif" font-weight="400" font-size="92" transform="matrix(1 0 0 1 1019.27 1619)">1</text><text fill="#00B050" font-family="Calibri,Calibri_MSFontService,sans-serif" font-weight="400" font-size="92" transform="matrix(1 0 0 1 1106.93 1619)">0</text><text fill="#00B0F0" font-family="Calibri,Calibri_MSFontService,sans-serif" font-weight="400" font-size="92" transform="matrix(1 0 0 1 1708.32 1207)">0</text><text fill="#00B050" font-family="Calibri,Calibri_MSFontService,sans-serif" font-weight="400" font-size="92" transform="matrix(1 0 0 1 1795.97 1207)">0</text><text fill="#00B0F0" font-family="Calibri,Calibri_MSFontService,sans-serif" font-weight="400" font-size="92" transform="matrix(1 0 0 1 1248.29 1207)">2</text><text fill="#00B050" font-family="Calibri,Calibri_MSFontService,sans-serif" font-weight="400" font-size="92" transform="matrix(1 0 0 1 1335.95 1207)">0</text><text fill="#00B0F0" font-family="Calibri,Calibri_MSFontService,sans-serif" font-weight="400" font-size="92" transform="matrix(1 0 0 1 1466.72 756)">3</text><text fill="#00B050" font-family="Calibri,Calibri_MSFontService,sans-serif" font-weight="400" font-size="92" transform="matrix(1 0 0 1 1554.38 756)">1</text><path d="M773 1828.5C773 1782.94 809.937 1746 855.5 1746 901.064 1746 938 1782.94 938 1828.5 938 1874.06 901.064 1911 855.5 1911 809.937 1911 773 1874.06 773 1828.5Z" stroke="#FF0000" stroke-width="10.3125" stroke-miterlimit="8" fill="none" fill-rule="evenodd"/><text font-family="Calibri,Calibri_MSFontService,sans-serif" font-weight="400" font-size="110" transform="matrix(1 0 0 1 828.125 1866)">1</text><path d="M4.46202-2.58405 164.575 273.891 155.651 279.059-4.46202 2.58405ZM170.915 264.261 173.033 298.785 144.143 279.765Z" transform="matrix(-1 0 0 1 1029.03 1448)"/><text fill="#00B0F0" font-family="Calibri,Calibri_MSFontService,sans-serif" font-weight="400" font-size="92" transform="matrix(1 0 0 1 789.171 2050)">0</text><text fill="#00B050" font-family="Calibri,Calibri_MSFontService,sans-serif" font-weight="400" font-size="92" transform="matrix(1 0 0 1 876.827 2050)">0</text><path d="M1597.32 600.185 1766.51 859.816 1757.87 865.446 1588.68 605.815ZM1772.33 849.866 1776.26 884.231 1746.41 866.756Z"/></g></svg>